<svg width="299" height="44" viewBox="0 0 299 44" fill="none" xmlns="http://www.w3.org/2000/svg">
  <path d="M1.0755 5.11905L4.78403 9.34509V43H1.0755V5.11905Z" fill="#333333" />
  <path d="M57 5.06788L53.2914 5.06787V42.9999H57V5.06788Z" fill="#333333" />
  <path d="M45.2785 4.82187L50.1182 4.82188L32.8019 23.1125L30.1611 20.2373L45.2785 4.82187Z" fill="#333333" />
  <path d="M11.5399 26.3375L7.9113 23.1366L7.65656 42.8715L11.5399 42.4625V26.3375Z" fill="#333333" />
  <path d="M11.8302 5.37502L6.99054 5.375L30.5641 31.4301L33.1633 28.509L11.8302 5.37502Z" fill="#333333" />
  <path d="M1.0755 11.1556L3.76499 8.19046L27.9623 34.1402H23.1219L1.0755 11.1556Z" fill="#333333" />
  <path d="M33.0878 34.1401L30.3665 31.2106L43.7465 15.5875V22.0663L33.0878 34.1401Z" fill="#333333" />
  <path d="M46.4432 8.58439L50.1764 4.12704L50.3266 42.716L46.4432 42.3069V8.58439Z" fill="#333333" />
  <path
    d="M67.0568 40V31.2727H70.0057C70.6875 31.2727 71.2472 31.3892 71.6847 31.6222C72.1222 31.8523 72.446 32.169 72.6562 32.5724C72.8665 32.9759 72.9716 33.4347 72.9716 33.9489C72.9716 34.4631 72.8665 34.919 72.6562 35.3168C72.446 35.7145 72.1236 36.027 71.6889 36.2543C71.2543 36.4787 70.6989 36.5909 70.0227 36.5909H67.6364V35.6364H69.9886C70.4545 35.6364 70.8295 35.5682 71.1136 35.4318C71.4006 35.2955 71.608 35.1023 71.7358 34.8523C71.8665 34.5994 71.9318 34.2983 71.9318 33.9489C71.9318 33.5994 71.8665 33.294 71.7358 33.0327C71.6051 32.7713 71.3963 32.5696 71.1094 32.4276C70.8224 32.2827 70.4432 32.2102 69.9716 32.2102H68.1136V40H67.0568ZM71.1648 36.0795L73.3125 40H72.0852L69.9716 36.0795H71.1648ZM75.3326 40V31.2727H80.5996V32.2102H76.3894V35.1591H80.3269V36.0966H76.3894V39.0625H80.6678V40H75.3326ZM83.4624 40H82.3545L85.559 31.2727H86.6499L89.8545 40H88.7465L86.1386 32.6534H86.0704L83.4624 40ZM83.8715 36.5909H88.3374V37.5284H83.8715V36.5909ZM91.8138 40V31.2727H92.8707V39.0625H96.9275V40H91.8138ZM103.139 40V31.2727H108.406V32.2102H104.196V35.1591H108.133V36.0966H104.196V39.0625H108.474V40H103.139ZM115.683 33.4545C115.632 33.0227 115.425 32.6875 115.061 32.4489C114.698 32.2102 114.252 32.0909 113.723 32.0909C113.337 32.0909 112.999 32.1534 112.709 32.2784C112.422 32.4034 112.198 32.5753 112.036 32.794C111.877 33.0128 111.797 33.2614 111.797 33.5398C111.797 33.7727 111.852 33.973 111.963 34.1406C112.077 34.3054 112.222 34.4432 112.398 34.554C112.574 34.6619 112.759 34.7514 112.952 34.8224C113.145 34.8906 113.323 34.946 113.485 34.9886L114.371 35.2273C114.598 35.2869 114.851 35.3693 115.129 35.4744C115.411 35.5795 115.679 35.723 115.935 35.9048C116.193 36.0838 116.406 36.3139 116.574 36.5952C116.742 36.8764 116.825 37.2216 116.825 37.6307C116.825 38.1023 116.702 38.5284 116.455 38.9091C116.21 39.2898 115.852 39.5923 115.381 39.8168C114.912 40.0412 114.343 40.1534 113.672 40.1534C113.047 40.1534 112.506 40.0526 112.049 39.8509C111.594 39.6491 111.236 39.3679 110.975 39.0071C110.716 38.6463 110.57 38.2273 110.536 37.75H111.627C111.655 38.0795 111.766 38.3523 111.959 38.5682C112.155 38.7812 112.402 38.9403 112.7 39.0455C113.002 39.1477 113.325 39.1989 113.672 39.1989C114.075 39.1989 114.438 39.1335 114.759 39.0028C115.08 38.8693 115.334 38.6847 115.522 38.4489C115.709 38.2102 115.803 37.9318 115.803 37.6136C115.803 37.3239 115.722 37.0881 115.56 36.9062C115.398 36.7244 115.185 36.5767 114.921 36.4631C114.656 36.3494 114.371 36.25 114.064 36.1648L112.99 35.858C112.308 35.6619 111.769 35.3821 111.371 35.0185C110.973 34.6548 110.774 34.179 110.774 33.5909C110.774 33.1023 110.906 32.6761 111.171 32.3125C111.438 31.946 111.796 31.6619 112.245 31.4602C112.696 31.2557 113.2 31.1534 113.757 31.1534C114.32 31.1534 114.82 31.2543 115.257 31.456C115.695 31.6548 116.041 31.9276 116.297 32.2741C116.556 32.6207 116.692 33.0142 116.706 33.4545H115.683ZM118.686 32.2102V31.2727H125.231V32.2102H122.487V40H121.43V32.2102H118.686ZM126.801 40H125.693L128.897 31.2727H129.988L133.193 40H132.085L129.477 32.6534H129.409L126.801 40ZM127.21 36.5909H131.676V37.5284H127.21V36.5909ZM133.655 32.2102V31.2727H140.201V32.2102H137.456V40H136.4V32.2102H133.655ZM142.432 40V31.2727H147.699V32.2102H143.489V35.1591H147.426V36.0966H143.489V39.0625H147.767V40H142.432ZM154.179 40V31.2727H157.128C157.812 31.2727 158.372 31.3963 158.807 31.6435C159.244 31.8878 159.568 32.2188 159.778 32.6364C159.988 33.054 160.093 33.5199 160.093 34.0341C160.093 34.5483 159.988 35.0156 159.778 35.4361C159.571 35.8565 159.25 36.1918 158.815 36.4418C158.38 36.6889 157.824 36.8125 157.145 36.8125H155.031V35.875H157.111C157.579 35.875 157.956 35.794 158.24 35.6321C158.524 35.4702 158.73 35.2514 158.858 34.9759C158.988 34.6974 159.054 34.3835 159.054 34.0341C159.054 33.6847 158.988 33.3722 158.858 33.0966C158.73 32.821 158.522 32.6051 158.236 32.4489C157.949 32.2898 157.568 32.2102 157.093 32.2102H155.236V40H154.179ZM162.396 40V31.2727H165.345C166.027 31.2727 166.586 31.3892 167.024 31.6222C167.461 31.8523 167.785 32.169 167.995 32.5724C168.206 32.9759 168.311 33.4347 168.311 33.9489C168.311 34.4631 168.206 34.919 167.995 35.3168C167.785 35.7145 167.463 36.027 167.028 36.2543C166.593 36.4787 166.038 36.5909 165.362 36.5909H162.975V35.6364H165.328C165.794 35.6364 166.169 35.5682 166.453 35.4318C166.74 35.2955 166.947 35.1023 167.075 34.8523C167.206 34.5994 167.271 34.2983 167.271 33.9489C167.271 33.5994 167.206 33.294 167.075 33.0327C166.944 32.7713 166.735 32.5696 166.448 32.4276C166.162 32.2827 165.782 32.2102 165.311 32.2102H163.453V40H162.396ZM166.504 36.0795L168.652 40H167.424L165.311 36.0795H166.504ZM178.035 35.6364C178.035 36.5568 177.869 37.3523 177.537 38.0227C177.204 38.6932 176.748 39.2102 176.169 39.5739C175.589 39.9375 174.927 40.1193 174.183 40.1193C173.439 40.1193 172.777 39.9375 172.197 39.5739C171.618 39.2102 171.162 38.6932 170.829 38.0227C170.497 37.3523 170.331 36.5568 170.331 35.6364C170.331 34.7159 170.497 33.9205 170.829 33.25C171.162 32.5795 171.618 32.0625 172.197 31.6989C172.777 31.3352 173.439 31.1534 174.183 31.1534C174.927 31.1534 175.589 31.3352 176.169 31.6989C176.748 32.0625 177.204 32.5795 177.537 33.25C177.869 33.9205 178.035 34.7159 178.035 35.6364ZM177.013 35.6364C177.013 34.8807 176.886 34.2429 176.633 33.723C176.383 33.2031 176.044 32.8097 175.615 32.5426C175.189 32.2756 174.711 32.142 174.183 32.142C173.655 32.142 173.176 32.2756 172.747 32.5426C172.321 32.8097 171.981 33.2031 171.728 33.723C171.478 34.2429 171.353 34.8807 171.353 35.6364C171.353 36.392 171.478 37.0298 171.728 37.5497C171.981 38.0696 172.321 38.4631 172.747 38.7301C173.176 38.9972 173.655 39.1307 174.183 39.1307C174.711 39.1307 175.189 38.9972 175.615 38.7301C176.044 38.4631 176.383 38.0696 176.633 37.5497C176.886 37.0298 177.013 36.392 177.013 35.6364ZM180.412 40V31.2727H185.645V32.2102H181.469V35.1591H185.253V36.0966H181.469V40H180.412ZM188.055 40V31.2727H193.322V32.2102H189.112V35.1591H193.05V36.0966H189.112V39.0625H193.39V40H188.055ZM200.6 33.4545C200.549 33.0227 200.341 32.6875 199.978 32.4489C199.614 32.2102 199.168 32.0909 198.64 32.0909C198.253 32.0909 197.915 32.1534 197.625 32.2784C197.338 32.4034 197.114 32.5753 196.952 32.794C196.793 33.0128 196.713 33.2614 196.713 33.5398C196.713 33.7727 196.769 33.973 196.88 34.1406C196.993 34.3054 197.138 34.4432 197.314 34.554C197.49 34.6619 197.675 34.7514 197.868 34.8224C198.062 34.8906 198.239 34.946 198.401 34.9886L199.287 35.2273C199.515 35.2869 199.767 35.3693 200.046 35.4744C200.327 35.5795 200.596 35.723 200.851 35.9048C201.11 36.0838 201.323 36.3139 201.49 36.5952C201.658 36.8764 201.742 37.2216 201.742 37.6307C201.742 38.1023 201.618 38.5284 201.371 38.9091C201.127 39.2898 200.769 39.5923 200.297 39.8168C199.829 40.0412 199.259 40.1534 198.588 40.1534C197.963 40.1534 197.422 40.0526 196.965 39.8509C196.51 39.6491 196.152 39.3679 195.891 39.0071C195.633 38.6463 195.486 38.2273 195.452 37.75H196.543C196.571 38.0795 196.682 38.3523 196.875 38.5682C197.071 38.7812 197.319 38.9403 197.617 39.0455C197.918 39.1477 198.242 39.1989 198.588 39.1989C198.992 39.1989 199.354 39.1335 199.675 39.0028C199.996 38.8693 200.25 38.6847 200.438 38.4489C200.625 38.2102 200.719 37.9318 200.719 37.6136C200.719 37.3239 200.638 37.0881 200.476 36.9062C200.314 36.7244 200.101 36.5767 199.837 36.4631C199.573 36.3494 199.287 36.25 198.981 36.1648L197.907 35.858C197.225 35.6619 196.685 35.3821 196.287 35.0185C195.89 34.6548 195.691 34.179 195.691 33.5909C195.691 33.1023 195.823 32.6761 196.087 32.3125C196.354 31.946 196.712 31.6619 197.161 31.4602C197.613 31.2557 198.117 31.1534 198.674 31.1534C199.236 31.1534 199.736 31.2543 200.174 31.456C200.611 31.6548 200.958 31.9276 201.213 32.2741C201.472 32.6207 201.608 33.0142 201.623 33.4545H200.6ZM208.852 33.4545C208.801 33.0227 208.594 32.6875 208.23 32.4489C207.866 32.2102 207.42 32.0909 206.892 32.0909C206.506 32.0909 206.168 32.1534 205.878 32.2784C205.591 32.4034 205.366 32.5753 205.204 32.794C205.045 33.0128 204.966 33.2614 204.966 33.5398C204.966 33.7727 205.021 33.973 205.132 34.1406C205.246 34.3054 205.391 34.4432 205.567 34.554C205.743 34.6619 205.927 34.7514 206.121 34.8224C206.314 34.8906 206.491 34.946 206.653 34.9886L207.54 35.2273C207.767 35.2869 208.02 35.3693 208.298 35.4744C208.579 35.5795 208.848 35.723 209.104 35.9048C209.362 36.0838 209.575 36.3139 209.743 36.5952C209.91 36.8764 209.994 37.2216 209.994 37.6307C209.994 38.1023 209.871 38.5284 209.624 38.9091C209.379 39.2898 209.021 39.5923 208.55 39.8168C208.081 40.0412 207.511 40.1534 206.841 40.1534C206.216 40.1534 205.675 40.0526 205.217 39.8509C204.763 39.6491 204.405 39.3679 204.143 39.0071C203.885 38.6463 203.739 38.2273 203.704 37.75H204.795C204.824 38.0795 204.935 38.3523 205.128 38.5682C205.324 38.7812 205.571 38.9403 205.869 39.0455C206.17 39.1477 206.494 39.1989 206.841 39.1989C207.244 39.1989 207.606 39.1335 207.927 39.0028C208.249 38.8693 208.503 38.6847 208.69 38.4489C208.878 38.2102 208.972 37.9318 208.972 37.6136C208.972 37.3239 208.891 37.0881 208.729 36.9062C208.567 36.7244 208.354 36.5767 208.089 36.4631C207.825 36.3494 207.54 36.25 207.233 36.1648L206.159 35.858C205.477 35.6619 204.937 35.3821 204.54 35.0185C204.142 34.6548 203.943 34.179 203.943 33.5909C203.943 33.1023 204.075 32.6761 204.339 32.3125C204.606 31.946 204.964 31.6619 205.413 31.4602C205.865 31.2557 206.369 31.1534 206.926 31.1534C207.489 31.1534 207.989 31.2543 208.426 31.456C208.864 31.6548 209.21 31.9276 209.466 32.2741C209.724 32.6207 209.861 33.0142 209.875 33.4545H208.852ZM213.389 31.2727V40H212.332V31.2727H213.389ZM223.471 35.6364C223.471 36.5568 223.305 37.3523 222.973 38.0227C222.64 38.6932 222.184 39.2102 221.605 39.5739C221.025 39.9375 220.363 40.1193 219.619 40.1193C218.875 40.1193 218.213 39.9375 217.633 39.5739C217.054 39.2102 216.598 38.6932 216.265 38.0227C215.933 37.3523 215.767 36.5568 215.767 35.6364C215.767 34.7159 215.933 33.9205 216.265 33.25C216.598 32.5795 217.054 32.0625 217.633 31.6989C218.213 31.3352 218.875 31.1534 219.619 31.1534C220.363 31.1534 221.025 31.3352 221.605 31.6989C222.184 32.0625 222.64 32.5795 222.973 33.25C223.305 33.9205 223.471 34.7159 223.471 35.6364ZM222.449 35.6364C222.449 34.8807 222.322 34.2429 222.069 33.723C221.819 33.2031 221.48 32.8097 221.051 32.5426C220.625 32.2756 220.147 32.142 219.619 32.142C219.091 32.142 218.612 32.2756 218.183 32.5426C217.757 32.8097 217.417 33.2031 217.164 33.723C216.914 34.2429 216.789 34.8807 216.789 35.6364C216.789 36.392 216.914 37.0298 217.164 37.5497C217.417 38.0696 217.757 38.4631 218.183 38.7301C218.612 38.9972 219.091 39.1307 219.619 39.1307C220.147 39.1307 220.625 38.9972 221.051 38.7301C221.48 38.4631 221.819 38.0696 222.069 37.5497C222.322 37.0298 222.449 36.392 222.449 35.6364ZM232.769 31.2727V40H231.746L226.99 33.1477H226.905V40H225.848V31.2727H226.871L231.644 38.142H231.729V31.2727H232.769ZM235.841 40H234.733L237.938 31.2727H239.029L242.233 40H241.125L238.517 32.6534H238.449L235.841 40ZM236.25 36.5909H240.716V37.5284H236.25V36.5909ZM244.193 40V31.2727H245.25V39.0625H249.306V40H244.193Z"
    fill="#333333" />
  <path
    d="M66.8667 6.81818H69.4946L75.6736 21.9105H75.8866L82.0656 6.81818H84.6934V25H82.6338V11.1861H82.4562L76.7744 25H74.7858L69.104 11.1861H68.9264V25H66.8667V6.81818ZM91.1037 25H88.7955L95.4716 6.81818H97.7443L104.42 25H102.112L96.679 9.6946H96.5369L91.1037 25ZM91.956 17.8977H101.26V19.8509H91.956V17.8977ZM108.502 25V6.81818H114.646C116.066 6.81818 117.232 7.06084 118.144 7.54616C119.055 8.02557 119.73 8.68549 120.168 9.52592C120.606 10.3664 120.825 11.3222 120.825 12.3935C120.825 13.4647 120.606 14.4147 120.168 15.2433C119.73 16.0719 119.058 16.7229 118.153 17.1964C117.247 17.6639 116.09 17.8977 114.681 17.8977H109.71V15.9091H114.61C115.581 15.9091 116.362 15.767 116.954 15.483C117.552 15.1989 117.984 14.7964 118.25 14.2756C118.523 13.7488 118.659 13.1214 118.659 12.3935C118.659 11.6655 118.523 11.0292 118.25 10.4847C117.978 9.94022 117.543 9.52 116.945 9.22408C116.348 8.92223 115.557 8.77131 114.575 8.77131H110.704V25H108.502ZM117.061 16.8324L121.535 25H118.978L114.575 16.8324H117.061ZM138.173 12.5C137.977 11.9022 137.72 11.3666 137.4 10.8931C137.087 10.4137 136.711 10.0053 136.273 9.66797C135.841 9.33061 135.35 9.07315 134.799 8.8956C134.249 8.71804 133.645 8.62926 132.988 8.62926C131.911 8.62926 130.931 8.90743 130.049 9.46378C129.168 10.0201 128.466 10.8398 127.945 11.9229C127.425 13.006 127.164 14.3348 127.164 15.9091C127.164 17.4834 127.428 18.8121 127.954 19.8952C128.481 20.9783 129.194 21.7981 130.094 22.3544C130.993 22.9107 132.006 23.1889 133.13 23.1889C134.172 23.1889 135.089 22.967 135.882 22.5231C136.681 22.0733 137.303 21.44 137.747 20.6232C138.196 19.8005 138.421 18.8329 138.421 17.7202L139.096 17.8622H133.627V15.9091H140.552V17.8622C140.552 19.3596 140.232 20.6617 139.593 21.7685C138.96 22.8752 138.084 23.7334 136.965 24.343C135.853 24.9467 134.574 25.2486 133.13 25.2486C131.52 25.2486 130.106 24.8698 128.886 24.1122C127.673 23.3546 126.726 22.2775 126.046 20.8807C125.371 19.4839 125.033 17.8267 125.033 15.9091C125.033 14.4709 125.226 13.1777 125.611 12.0295C126.001 10.8754 126.552 9.89287 127.262 9.08203C127.972 8.27119 128.812 7.64974 129.783 7.21768C130.754 6.78563 131.822 6.5696 132.988 6.5696C133.947 6.5696 134.841 6.71461 135.669 7.00462C136.504 7.28871 137.246 7.69413 137.897 8.22088C138.554 8.74171 139.102 9.36612 139.54 10.0941C139.978 10.8162 140.28 11.6181 140.445 12.5H138.173ZM160.914 15.9091C160.914 17.8267 160.567 19.4839 159.875 20.8807C159.183 22.2775 158.233 23.3546 157.025 24.1122C155.818 24.8698 154.439 25.2486 152.888 25.2486C151.337 25.2486 149.958 24.8698 148.751 24.1122C147.544 23.3546 146.594 22.2775 145.901 20.8807C145.209 19.4839 144.863 17.8267 144.863 15.9091C144.863 13.9915 145.209 12.3343 145.901 10.9375C146.594 9.54072 147.544 8.46354 148.751 7.70597C149.958 6.94839 151.337 6.5696 152.888 6.5696C154.439 6.5696 155.818 6.94839 157.025 7.70597C158.233 8.46354 159.183 9.54072 159.875 10.9375C160.567 12.3343 160.914 13.9915 160.914 15.9091ZM158.783 15.9091C158.783 14.3348 158.52 13.006 157.993 11.9229C157.472 10.8398 156.765 10.0201 155.871 9.46378C154.983 8.90743 153.989 8.62926 152.888 8.62926C151.787 8.62926 150.79 8.90743 149.896 9.46378C149.009 10.0201 148.301 10.8398 147.775 11.9229C147.254 13.006 146.993 14.3348 146.993 15.9091C146.993 17.4834 147.254 18.8121 147.775 19.8952C148.301 20.9783 149.009 21.7981 149.896 22.3544C150.79 22.9107 151.787 23.1889 152.888 23.1889C153.989 23.1889 154.983 22.9107 155.871 22.3544C156.765 21.7981 157.472 20.9783 157.993 19.8952C158.52 18.8121 158.783 17.4834 158.783 15.9091ZM164.115 8.77131V6.81818H177.751V8.77131H172.034V25H169.832V8.77131H164.115ZM190.68 6.81818H193.308L199.487 21.9105H199.7L205.879 6.81818H208.507V25H206.447V11.1861H206.27L200.588 25H198.599L192.917 11.1861H192.74V25H190.68V6.81818ZM214.917 25H212.609L219.285 6.81818H221.558L228.234 25H225.926L220.492 9.6946H220.35L214.917 25ZM215.769 17.8977H225.073V19.8509H215.769V17.8977ZM232.316 25V6.81818H238.459C239.88 6.81818 241.046 7.06084 241.957 7.54616C242.869 8.02557 243.543 8.68549 243.981 9.52592C244.419 10.3664 244.638 11.3222 244.638 12.3935C244.638 13.4647 244.419 14.4147 243.981 15.2433C243.543 16.0719 242.872 16.7229 241.966 17.1964C241.061 17.6639 239.904 17.8977 238.495 17.8977H233.523V15.9091H238.424C239.395 15.9091 240.176 15.767 240.768 15.483C241.365 15.1989 241.797 14.7964 242.064 14.2756C242.336 13.7488 242.472 13.1214 242.472 12.3935C242.472 11.6655 242.336 11.0292 242.064 10.4847C241.792 9.94022 241.357 9.52 240.759 9.22408C240.161 8.92223 239.371 8.77131 238.388 8.77131H234.518V25H232.316ZM240.874 16.8324L245.349 25H242.792L238.388 16.8324H240.874ZM248.563 8.77131V6.81818H262.199V8.77131H256.482V25H254.28V8.77131H248.563ZM269.049 6.81818V25H266.847V6.81818H269.049ZM289.131 6.81818V25H287L277.093 10.7244H276.915V25H274.713V6.81818H276.844L286.787 21.1293H286.965V6.81818H289.131Z"
    fill="#333333" />
</svg>