<svg width="358" height="84" viewBox="0 0 358 84" fill="none" xmlns="http://www.w3.org/2000/svg">
<path d="M125.867 26.8182H128.495L134.674 41.9105H134.887L141.066 26.8182H143.693V45H141.634V31.1861H141.456L135.774 45H133.786L128.104 31.1861H127.926V45H125.867V26.8182ZM150.104 45H147.795L154.472 26.8182H156.744L163.42 45H161.112L155.679 29.6946H155.537L150.104 45ZM150.956 37.8977H160.26V39.8509H150.956V37.8977ZM167.502 45V26.8182H173.646C175.066 26.8182 176.232 27.0608 177.144 27.5462C178.055 28.0256 178.73 28.6855 179.168 29.5259C179.606 30.3664 179.825 31.3222 179.825 32.3935C179.825 33.4647 179.606 34.4147 179.168 35.2433C178.73 36.0719 178.058 36.7229 177.153 37.1964C176.247 37.6639 175.09 37.8977 173.681 37.8977H168.71V35.9091H173.61C174.581 35.9091 175.362 35.767 175.954 35.483C176.552 35.1989 176.984 34.7964 177.25 34.2756C177.523 33.7488 177.659 33.1214 177.659 32.3935C177.659 31.6655 177.523 31.0292 177.25 30.4847C176.978 29.9402 176.543 29.52 175.945 29.2241C175.348 28.9222 174.557 28.7713 173.575 28.7713H169.704V45H167.502ZM176.061 36.8324L180.535 45H177.978L173.575 36.8324H176.061ZM197.173 32.5C196.977 31.9022 196.72 31.3666 196.4 30.8931C196.087 30.4137 195.711 30.0053 195.273 29.668C194.841 29.3306 194.35 29.0732 193.799 28.8956C193.249 28.718 192.645 28.6293 191.988 28.6293C190.911 28.6293 189.931 28.9074 189.049 29.4638C188.168 30.0201 187.466 30.8398 186.945 31.9229C186.425 33.006 186.164 34.3348 186.164 35.9091C186.164 37.4834 186.428 38.8121 186.954 39.8952C187.481 40.9783 188.194 41.7981 189.094 42.3544C189.993 42.9107 191.006 43.1889 192.13 43.1889C193.172 43.1889 194.089 42.967 194.882 42.5231C195.681 42.0733 196.303 41.44 196.747 40.6232C197.196 39.8005 197.421 38.8329 197.421 37.7202L198.096 37.8622H192.627V35.9091H199.552V37.8622C199.552 39.3596 199.232 40.6617 198.593 41.7685C197.96 42.8752 197.084 43.7334 195.965 44.343C194.853 44.9467 193.574 45.2486 192.13 45.2486C190.52 45.2486 189.106 44.8698 187.886 44.1122C186.673 43.3546 185.726 42.2775 185.046 40.8807C184.371 39.4839 184.033 37.8267 184.033 35.9091C184.033 34.4709 184.226 33.1777 184.611 32.0295C185.001 30.8754 185.552 29.8929 186.262 29.082C186.972 28.2712 187.812 27.6497 188.783 27.2177C189.754 26.7856 190.822 26.5696 191.988 26.5696C192.947 26.5696 193.841 26.7146 194.669 27.0046C195.504 27.2887 196.246 27.6941 196.897 28.2209C197.554 28.7417 198.102 29.3661 198.54 30.0941C198.978 30.8162 199.28 31.6181 199.445 32.5H197.173ZM219.914 35.9091C219.914 37.8267 219.567 39.4839 218.875 40.8807C218.183 42.2775 217.233 43.3546 216.025 44.1122C214.818 44.8698 213.439 45.2486 211.888 45.2486C210.337 45.2486 208.958 44.8698 207.751 44.1122C206.544 43.3546 205.594 42.2775 204.901 40.8807C204.209 39.4839 203.863 37.8267 203.863 35.9091C203.863 33.9915 204.209 32.3343 204.901 30.9375C205.594 29.5407 206.544 28.4635 207.751 27.706C208.958 26.9484 210.337 26.5696 211.888 26.5696C213.439 26.5696 214.818 26.9484 216.025 27.706C217.233 28.4635 218.183 29.5407 218.875 30.9375C219.567 32.3343 219.914 33.9915 219.914 35.9091ZM217.783 35.9091C217.783 34.3348 217.52 33.006 216.993 31.9229C216.472 30.8398 215.765 30.0201 214.871 29.4638C213.983 28.9074 212.989 28.6293 211.888 28.6293C210.787 28.6293 209.79 28.9074 208.896 29.4638C208.009 30.0201 207.301 30.8398 206.775 31.9229C206.254 33.006 205.993 34.3348 205.993 35.9091C205.993 37.4834 206.254 38.8121 206.775 39.8952C207.301 40.9783 208.009 41.7981 208.896 42.3544C209.79 42.9107 210.787 43.1889 211.888 43.1889C212.989 43.1889 213.983 42.9107 214.871 42.3544C215.765 41.7981 216.472 40.9783 216.993 39.8952C217.52 38.8121 217.783 37.4834 217.783 35.9091ZM223.115 28.7713V26.8182H236.751V28.7713H231.034V45H228.832V28.7713H223.115ZM249.68 26.8182H252.308L258.487 41.9105H258.7L264.879 26.8182H267.507V45H265.447V31.1861H265.27L259.588 45H257.599L251.917 31.1861H251.74V45H249.68V26.8182ZM273.917 45H271.609L278.285 26.8182H280.558L287.234 45H284.926L279.492 29.6946H279.35L273.917 45ZM274.769 37.8977H284.073V39.8509H274.769V37.8977ZM291.316 45V26.8182H297.459C298.88 26.8182 300.046 27.0608 300.957 27.5462C301.869 28.0256 302.543 28.6855 302.981 29.5259C303.419 30.3664 303.638 31.3222 303.638 32.3935C303.638 33.4647 303.419 34.4147 302.981 35.2433C302.543 36.0719 301.872 36.7229 300.966 37.1964C300.061 37.6639 298.904 37.8977 297.495 37.8977H292.523V35.9091H297.424C298.395 35.9091 299.176 35.767 299.768 35.483C300.365 35.1989 300.797 34.7964 301.064 34.2756C301.336 33.7488 301.472 33.1214 301.472 32.3935C301.472 31.6655 301.336 31.0292 301.064 30.4847C300.792 29.9402 300.357 29.52 299.759 29.2241C299.161 28.9222 298.371 28.7713 297.388 28.7713H293.518V45H291.316ZM299.874 36.8324L304.349 45H301.792L297.388 36.8324H299.874ZM307.563 28.7713V26.8182H321.199V28.7713H315.482V45H313.28V28.7713H307.563ZM328.049 26.8182V45H325.847V26.8182H328.049ZM348.131 26.8182V45H346L336.093 30.7244H335.915V45H333.713V26.8182H335.844L345.787 41.1293H345.965V26.8182H348.131Z" fill="#333333"/>
<path d="M127.922 65V56.2727H130.871C131.553 56.2727 132.112 56.3892 132.55 56.6222C132.987 56.8523 133.311 57.169 133.522 57.5724C133.732 57.9759 133.837 58.4347 133.837 58.9489C133.837 59.4631 133.732 59.919 133.522 60.3168C133.311 60.7145 132.989 61.027 132.554 61.2543C132.12 61.4787 131.564 61.5909 130.888 61.5909H128.502V60.6364H130.854C131.32 60.6364 131.695 60.5682 131.979 60.4318C132.266 60.2955 132.473 60.1023 132.601 59.8523C132.732 59.5994 132.797 59.2983 132.797 58.9489C132.797 58.5994 132.732 58.294 132.601 58.0327C132.47 57.7713 132.262 57.5696 131.975 57.4276C131.688 57.2827 131.308 57.2102 130.837 57.2102H128.979V65H127.922ZM132.03 61.0795L134.178 65H132.951L130.837 61.0795H132.03ZM136.198 65V56.2727H141.465V57.2102H137.255V60.1591H141.192V61.0966H137.255V64.0625H141.533V65H136.198ZM144.328 65H143.22L146.424 56.2727H147.515L150.72 65H149.612L147.004 57.6534H146.936L144.328 65ZM144.737 61.5909H149.203V62.5284H144.737V61.5909ZM152.679 65V56.2727H153.736V64.0625H157.793V65H152.679ZM164.004 65V56.2727H169.271V57.2102H165.061V60.1591H168.998V61.0966H165.061V64.0625H169.339V65H164.004ZM176.549 58.4545C176.498 58.0227 176.29 57.6875 175.927 57.4489C175.563 57.2102 175.117 57.0909 174.589 57.0909C174.202 57.0909 173.864 57.1534 173.574 57.2784C173.287 57.4034 173.063 57.5753 172.901 57.794C172.742 58.0128 172.662 58.2614 172.662 58.5398C172.662 58.7727 172.718 58.973 172.829 59.1406C172.942 59.3054 173.087 59.4432 173.263 59.554C173.439 59.6619 173.624 59.7514 173.817 59.8224C174.01 59.8906 174.188 59.946 174.35 59.9886L175.236 60.2273C175.464 60.2869 175.716 60.3693 175.995 60.4744C176.276 60.5795 176.544 60.723 176.8 60.9048C177.059 61.0838 177.272 61.3139 177.439 61.5952C177.607 61.8764 177.691 62.2216 177.691 62.6307C177.691 63.1023 177.567 63.5284 177.32 63.9091C177.076 64.2898 176.718 64.5923 176.246 64.8168C175.777 65.0412 175.208 65.1534 174.537 65.1534C173.912 65.1534 173.371 65.0526 172.914 64.8509C172.459 64.6491 172.101 64.3679 171.84 64.0071C171.581 63.6463 171.435 63.2273 171.401 62.75H172.492C172.52 63.0795 172.631 63.3523 172.824 63.5682C173.02 63.7812 173.267 63.9403 173.566 64.0455C173.867 64.1477 174.191 64.1989 174.537 64.1989C174.941 64.1989 175.303 64.1335 175.624 64.0028C175.945 63.8693 176.199 63.6847 176.387 63.4489C176.574 63.2102 176.668 62.9318 176.668 62.6136C176.668 62.3239 176.587 62.0881 176.425 61.9062C176.263 61.7244 176.05 61.5767 175.786 61.4631C175.522 61.3494 175.236 61.25 174.929 61.1648L173.856 60.858C173.174 60.6619 172.634 60.3821 172.236 60.0185C171.839 59.6548 171.64 59.179 171.64 58.5909C171.64 58.1023 171.772 57.6761 172.036 57.3125C172.303 56.946 172.661 56.6619 173.11 56.4602C173.562 56.2557 174.066 56.1534 174.623 56.1534C175.185 56.1534 175.685 56.2543 176.123 56.456C176.56 56.6548 176.907 56.9276 177.162 57.2741C177.421 57.6207 177.557 58.0142 177.571 58.4545H176.549ZM179.551 57.2102V56.2727H186.097V57.2102H183.352V65H182.295V57.2102H179.551ZM187.666 65H186.558L189.763 56.2727H190.854L194.058 65H192.95L190.342 57.6534H190.274L187.666 65ZM188.075 61.5909H192.541V62.5284H188.075V61.5909ZM194.521 57.2102V56.2727H201.066V57.2102H198.322V65H197.265V57.2102H194.521ZM203.297 65V56.2727H208.564V57.2102H204.354V60.1591H208.291V61.0966H204.354V64.0625H208.632V65H203.297ZM215.044 65V56.2727H217.993C218.678 56.2727 219.237 56.3963 219.672 56.6435C220.109 56.8878 220.433 57.2188 220.643 57.6364C220.854 58.054 220.959 58.5199 220.959 59.0341C220.959 59.5483 220.854 60.0156 220.643 60.4361C220.436 60.8565 220.115 61.1918 219.68 61.4418C219.246 61.6889 218.689 61.8125 218.01 61.8125H215.896V60.875H217.976C218.445 60.875 218.821 60.794 219.105 60.6321C219.389 60.4702 219.595 60.2514 219.723 59.9759C219.854 59.6974 219.919 59.3835 219.919 59.0341C219.919 58.6847 219.854 58.3722 219.723 58.0966C219.595 57.821 219.388 57.6051 219.101 57.4489C218.814 57.2898 218.433 57.2102 217.959 57.2102H216.101V65H215.044ZM223.261 65V56.2727H226.21C226.892 56.2727 227.452 56.3892 227.889 56.6222C228.327 56.8523 228.65 57.169 228.861 57.5724C229.071 57.9759 229.176 58.4347 229.176 58.9489C229.176 59.4631 229.071 59.919 228.861 60.3168C228.65 60.7145 228.328 61.027 227.893 61.2543C227.459 61.4787 226.903 61.5909 226.227 61.5909H223.841V60.6364H226.193C226.659 60.6364 227.034 60.5682 227.318 60.4318C227.605 60.2955 227.812 60.1023 227.94 59.8523C228.071 59.5994 228.136 59.2983 228.136 58.9489C228.136 58.5994 228.071 58.294 227.94 58.0327C227.809 57.7713 227.601 57.5696 227.314 57.4276C227.027 57.2827 226.648 57.2102 226.176 57.2102H224.318V65H223.261ZM227.369 61.0795L229.517 65H228.29L226.176 61.0795H227.369ZM238.901 60.6364C238.901 61.5568 238.734 62.3523 238.402 63.0227C238.07 63.6932 237.614 64.2102 237.034 64.5739C236.455 64.9375 235.793 65.1193 235.048 65.1193C234.304 65.1193 233.642 64.9375 233.063 64.5739C232.483 64.2102 232.027 63.6932 231.695 63.0227C231.362 62.3523 231.196 61.5568 231.196 60.6364C231.196 59.7159 231.362 58.9205 231.695 58.25C232.027 57.5795 232.483 57.0625 233.063 56.6989C233.642 56.3352 234.304 56.1534 235.048 56.1534C235.793 56.1534 236.455 56.3352 237.034 56.6989C237.614 57.0625 238.07 57.5795 238.402 58.25C238.734 58.9205 238.901 59.7159 238.901 60.6364ZM237.878 60.6364C237.878 59.8807 237.751 59.2429 237.499 58.723C237.249 58.2031 236.909 57.8097 236.48 57.5426C236.054 57.2756 235.577 57.142 235.048 57.142C234.52 57.142 234.041 57.2756 233.612 57.5426C233.186 57.8097 232.847 58.2031 232.594 58.723C232.344 59.2429 232.219 59.8807 232.219 60.6364C232.219 61.392 232.344 62.0298 232.594 62.5497C232.847 63.0696 233.186 63.4631 233.612 63.7301C234.041 63.9972 234.52 64.1307 235.048 64.1307C235.577 64.1307 236.054 63.9972 236.48 63.7301C236.909 63.4631 237.249 63.0696 237.499 62.5497C237.751 62.0298 237.878 61.392 237.878 60.6364ZM241.278 65V56.2727H246.511V57.2102H242.334V60.1591H246.118V61.0966H242.334V65H241.278ZM248.921 65V56.2727H254.188V57.2102H249.977V60.1591H253.915V61.0966H249.977V64.0625H254.256V65H248.921ZM261.465 58.4545C261.414 58.0227 261.207 57.6875 260.843 57.4489C260.479 57.2102 260.033 57.0909 259.505 57.0909C259.119 57.0909 258.78 57.1534 258.491 57.2784C258.204 57.4034 257.979 57.5753 257.817 57.794C257.658 58.0128 257.579 58.2614 257.579 58.5398C257.579 58.7727 257.634 58.973 257.745 59.1406C257.859 59.3054 258.004 59.4432 258.18 59.554C258.356 59.6619 258.54 59.7514 258.734 59.8224C258.927 59.8906 259.104 59.946 259.266 59.9886L260.153 60.2273C260.38 60.2869 260.633 60.3693 260.911 60.4744C261.192 60.5795 261.461 60.723 261.717 60.9048C261.975 61.0838 262.188 61.3139 262.356 61.5952C262.523 61.8764 262.607 62.2216 262.607 62.6307C262.607 63.1023 262.484 63.5284 262.236 63.9091C261.992 64.2898 261.634 64.5923 261.163 64.8168C260.694 65.0412 260.124 65.1534 259.454 65.1534C258.829 65.1534 258.288 65.0526 257.83 64.8509C257.376 64.6491 257.018 64.3679 256.756 64.0071C256.498 63.6463 256.352 63.2273 256.317 62.75H257.408C257.437 63.0795 257.548 63.3523 257.741 63.5682C257.937 63.7812 258.184 63.9403 258.482 64.0455C258.783 64.1477 259.107 64.1989 259.454 64.1989C259.857 64.1989 260.219 64.1335 260.54 64.0028C260.861 63.8693 261.116 63.6847 261.303 63.4489C261.491 63.2102 261.584 62.9318 261.584 62.6136C261.584 62.3239 261.504 62.0881 261.342 61.9062C261.18 61.7244 260.967 61.5767 260.702 61.4631C260.438 61.3494 260.153 61.25 259.846 61.1648L258.772 60.858C258.09 60.6619 257.55 60.3821 257.153 60.0185C256.755 59.6548 256.556 59.179 256.556 58.5909C256.556 58.1023 256.688 57.6761 256.952 57.3125C257.219 56.946 257.577 56.6619 258.026 56.4602C258.478 56.2557 258.982 56.1534 259.539 56.1534C260.102 56.1534 260.602 56.2543 261.039 56.456C261.477 56.6548 261.823 56.9276 262.079 57.2741C262.337 57.6207 262.474 58.0142 262.488 58.4545H261.465ZM269.718 58.4545C269.666 58.0227 269.459 57.6875 269.095 57.4489C268.732 57.2102 268.286 57.0909 267.757 57.0909C267.371 57.0909 267.033 57.1534 266.743 57.2784C266.456 57.4034 266.232 57.5753 266.07 57.794C265.911 58.0128 265.831 58.2614 265.831 58.5398C265.831 58.7727 265.887 58.973 265.997 59.1406C266.111 59.3054 266.256 59.4432 266.432 59.554C266.608 59.6619 266.793 59.7514 266.986 59.8224C267.179 59.8906 267.357 59.946 267.519 59.9886L268.405 60.2273C268.632 60.2869 268.885 60.3693 269.164 60.4744C269.445 60.5795 269.713 60.723 269.969 60.9048C270.227 61.0838 270.441 61.3139 270.608 61.5952C270.776 61.8764 270.86 62.2216 270.86 62.6307C270.86 63.1023 270.736 63.5284 270.489 63.9091C270.244 64.2898 269.887 64.5923 269.415 64.8168C268.946 65.0412 268.377 65.1534 267.706 65.1534C267.081 65.1534 266.54 65.0526 266.083 64.8509C265.628 64.6491 265.27 64.3679 265.009 64.0071C264.75 63.6463 264.604 63.2273 264.57 62.75H265.661C265.689 63.0795 265.8 63.3523 265.993 63.5682C266.189 63.7812 266.436 63.9403 266.735 64.0455C267.036 64.1477 267.36 64.1989 267.706 64.1989C268.11 64.1989 268.472 64.1335 268.793 64.0028C269.114 63.8693 269.368 63.6847 269.556 63.4489C269.743 63.2102 269.837 62.9318 269.837 62.6136C269.837 62.3239 269.756 62.0881 269.594 61.9062C269.432 61.7244 269.219 61.5767 268.955 61.4631C268.691 61.3494 268.405 61.25 268.098 61.1648L267.024 60.858C266.343 60.6619 265.803 60.3821 265.405 60.0185C265.007 59.6548 264.808 59.179 264.808 58.5909C264.808 58.1023 264.941 57.6761 265.205 57.3125C265.472 56.946 265.83 56.6619 266.279 56.4602C266.73 56.2557 267.235 56.1534 267.791 56.1534C268.354 56.1534 268.854 56.2543 269.291 56.456C269.729 56.6548 270.075 56.9276 270.331 57.2741C270.59 57.6207 270.726 58.0142 270.74 58.4545H269.718ZM274.254 56.2727V65H273.197V56.2727H274.254ZM284.337 60.6364C284.337 61.5568 284.17 62.3523 283.838 63.0227C283.506 63.6932 283.05 64.2102 282.47 64.5739C281.891 64.9375 281.229 65.1193 280.484 65.1193C279.74 65.1193 279.078 64.9375 278.498 64.5739C277.919 64.2102 277.463 63.6932 277.131 63.0227C276.798 62.3523 276.632 61.5568 276.632 60.6364C276.632 59.7159 276.798 58.9205 277.131 58.25C277.463 57.5795 277.919 57.0625 278.498 56.6989C279.078 56.3352 279.74 56.1534 280.484 56.1534C281.229 56.1534 281.891 56.3352 282.47 56.6989C283.05 57.0625 283.506 57.5795 283.838 58.25C284.17 58.9205 284.337 59.7159 284.337 60.6364ZM283.314 60.6364C283.314 59.8807 283.187 59.2429 282.935 58.723C282.685 58.2031 282.345 57.8097 281.916 57.5426C281.49 57.2756 281.013 57.142 280.484 57.142C279.956 57.142 279.477 57.2756 279.048 57.5426C278.622 57.8097 278.283 58.2031 278.03 58.723C277.78 59.2429 277.655 59.8807 277.655 60.6364C277.655 61.392 277.78 62.0298 278.03 62.5497C278.283 63.0696 278.622 63.4631 279.048 63.7301C279.477 63.9972 279.956 64.1307 280.484 64.1307C281.013 64.1307 281.49 63.9972 281.916 63.7301C282.345 63.4631 282.685 63.0696 282.935 62.5497C283.187 62.0298 283.314 61.392 283.314 60.6364ZM293.634 56.2727V65H292.611L287.856 58.1477H287.77V65H286.714V56.2727H287.736L292.509 63.142H292.594V56.2727H293.634ZM296.707 65H295.599L298.803 56.2727H299.894L303.099 65H301.991L299.383 57.6534H299.315L296.707 65ZM297.116 61.5909H301.582V62.5284H297.116V61.5909ZM305.058 65V56.2727H306.115V64.0625H310.172V65H305.058Z" fill="#333333"/>
<path d="M0 10L8 18.2555V84H0V10Z" fill="#333333"/>
<path d="M116 5.99979L108 14.9998V83.9998H116V5.99979Z" fill="#333333"/>
<path d="M98.3703 0L98.0087 11.9644L68.6968 41.4915L63 35.8749L98.3703 0Z" fill="#333333"/>
<path d="M13.5826 1.02463L14.3953 13.0388L63.6128 61.3983L69.2197 55.6919L13.5826 1.02463Z" fill="#333333"/>
<path d="M0 21.7924L5.80174 16L63.9736 74.2658L58.1718 80.0582L0 21.7924Z" fill="#333333"/>
<path d="M69.0569 66.6922L63.1865 60.9695L108 14.9998L113.87 20.7225L69.0569 66.6922Z" fill="#333333"/>
</svg>
