<svg width="245" height="137" viewBox="0 0 245 137" fill="none" xmlns="http://www.w3.org/2000/svg">
<path d="M11.3667 95.8182H13.9946L20.1736 110.911H20.3866L26.5656 95.8182H29.1934V114H27.1338V100.186H26.9562L21.2744 114H19.2858L13.604 100.186H13.4264V114H11.3667V95.8182ZM35.6037 114H33.2955L39.9716 95.8182H42.2443L48.9205 114H46.6122L41.179 98.6946H41.0369L35.6037 114ZM36.456 106.898H45.7599V108.851H36.456V106.898ZM53.0025 114V95.8182H59.146C60.5664 95.8182 61.7324 96.0608 62.6438 96.5462C63.5553 97.0256 64.23 97.6855 64.668 98.5259C65.1059 99.3664 65.3249 100.322 65.3249 101.393C65.3249 102.465 65.1059 103.415 64.668 104.243C64.23 105.072 63.5582 105.723 62.6527 106.196C61.7472 106.664 60.5901 106.898 59.1815 106.898H54.2099V104.909H59.1104C60.0811 104.909 60.8623 104.767 61.4542 104.483C62.052 104.199 62.484 103.796 62.7504 103.276C63.0226 102.749 63.1587 102.121 63.1587 101.393C63.1587 100.665 63.0226 100.029 62.7504 99.4847C62.4781 98.9402 62.0431 98.52 61.4453 98.2241C60.8475 97.9222 60.0574 97.7713 59.0749 97.7713H55.2042V114H53.0025ZM61.5607 105.832L66.0352 114H63.4783L59.0749 105.832H61.5607ZM82.6727 101.5C82.4774 100.902 82.2199 100.367 81.9003 99.8931C81.5866 99.4137 81.2108 99.0053 80.7728 98.668C80.3408 98.3306 79.8495 98.0732 79.2991 97.8956C78.7487 97.718 78.145 97.6293 77.488 97.6293C76.4108 97.6293 75.4313 97.9074 74.5494 98.4638C73.6676 99.0201 72.9662 99.8398 72.4454 100.923C71.9246 102.006 71.6642 103.335 71.6642 104.909C71.6642 106.483 71.9275 107.812 72.4543 108.895C72.981 109.978 73.6942 110.798 74.5938 111.354C75.4935 111.911 76.5055 112.189 77.6301 112.189C78.6717 112.189 79.5891 111.967 80.3822 111.523C81.1812 111.073 81.8026 110.44 82.2465 109.623C82.6963 108.801 82.9213 107.833 82.9213 106.72L83.596 106.862H78.1272V104.909H85.0519V106.862C85.0519 108.36 84.7323 109.662 84.0931 110.768C83.4598 111.875 82.5839 112.733 81.4653 113.343C80.3526 113.947 79.0742 114.249 77.6301 114.249C76.0202 114.249 74.6057 113.87 73.3865 113.112C72.1731 112.355 71.2262 111.277 70.5455 109.881C69.8708 108.484 69.5335 106.827 69.5335 104.909C69.5335 103.471 69.7258 102.178 70.1105 101.029C70.5012 99.8754 71.0516 98.8929 71.7618 98.082C72.472 97.2712 73.3125 96.6497 74.2831 96.2177C75.2538 95.7856 76.3221 95.5696 77.488 95.5696C78.4468 95.5696 79.3405 95.7146 80.1691 96.0046C81.0036 96.2887 81.7464 96.6941 82.3975 97.2209C83.0544 97.7417 83.6019 98.3661 84.0399 99.0941C84.4778 99.8162 84.7797 100.618 84.9454 101.5H82.6727ZM105.414 104.909C105.414 106.827 105.067 108.484 104.375 109.881C103.683 111.277 102.733 112.355 101.525 113.112C100.318 113.87 98.9388 114.249 97.3881 114.249C95.8375 114.249 94.4585 113.87 93.2511 113.112C92.0437 112.355 91.0938 111.277 90.4013 109.881C89.7088 108.484 89.3626 106.827 89.3626 104.909C89.3626 102.991 89.7088 101.334 90.4013 99.9375C91.0938 98.5407 92.0437 97.4635 93.2511 96.706C94.4585 95.9484 95.8375 95.5696 97.3881 95.5696C98.9388 95.5696 100.318 95.9484 101.525 96.706C102.733 97.4635 103.683 98.5407 104.375 99.9375C105.067 101.334 105.414 102.991 105.414 104.909ZM103.283 104.909C103.283 103.335 103.02 102.006 102.493 100.923C101.972 99.8398 101.265 99.0201 100.371 98.4638C99.4833 97.9074 98.489 97.6293 97.3881 97.6293C96.2873 97.6293 95.29 97.9074 94.3963 98.4638C93.5085 99.0201 92.8013 99.8398 92.2745 100.923C91.7537 102.006 91.4933 103.335 91.4933 104.909C91.4933 106.483 91.7537 107.812 92.2745 108.895C92.8013 109.978 93.5085 110.798 94.3963 111.354C95.29 111.911 96.2873 112.189 97.3881 112.189C98.489 112.189 99.4833 111.911 100.371 111.354C101.265 110.798 101.972 109.978 102.493 108.895C103.02 107.812 103.283 106.483 103.283 104.909ZM108.615 97.7713V95.8182H122.251V97.7713H116.534V114H114.332V97.7713H108.615ZM135.18 95.8182H137.808L143.987 110.911H144.2L150.379 95.8182H153.007V114H150.947V100.186H150.77L145.088 114H143.099L137.417 100.186H137.24V114H135.18V95.8182ZM159.417 114H157.109L163.785 95.8182H166.058L172.734 114H170.426L164.992 98.6946H164.85L159.417 114ZM160.269 106.898H169.573V108.851H160.269V106.898ZM176.816 114V95.8182H182.959C184.38 95.8182 185.546 96.0608 186.457 96.5462C187.369 97.0256 188.043 97.6855 188.481 98.5259C188.919 99.3664 189.138 100.322 189.138 101.393C189.138 102.465 188.919 103.415 188.481 104.243C188.043 105.072 187.372 105.723 186.466 106.196C185.561 106.664 184.404 106.898 182.995 106.898H178.023V104.909H182.924C183.895 104.909 184.676 104.767 185.268 104.483C185.865 104.199 186.297 103.796 186.564 103.276C186.836 102.749 186.972 102.121 186.972 101.393C186.972 100.665 186.836 100.029 186.564 99.4847C186.292 98.9402 185.857 98.52 185.259 98.2241C184.661 97.9222 183.871 97.7713 182.888 97.7713H179.018V114H176.816ZM185.374 105.832L189.849 114H187.292L182.888 105.832H185.374ZM193.063 97.7713V95.8182H206.699V97.7713H200.982V114H198.78V97.7713H193.063ZM213.549 95.8182V114H211.347V95.8182H213.549ZM233.631 95.8182V114H231.5L221.593 99.7244H221.415V114H219.213V95.8182H221.344L231.287 110.129H231.465V95.8182H233.631Z" fill="#333333"/>
<path d="M30.0568 133V124.273H33.0057C33.6875 124.273 34.2472 124.389 34.6847 124.622C35.1222 124.852 35.446 125.169 35.6562 125.572C35.8665 125.976 35.9716 126.435 35.9716 126.949C35.9716 127.463 35.8665 127.919 35.6562 128.317C35.446 128.714 35.1236 129.027 34.6889 129.254C34.2543 129.479 33.6989 129.591 33.0227 129.591H30.6364V128.636H32.9886C33.4545 128.636 33.8295 128.568 34.1136 128.432C34.4006 128.295 34.608 128.102 34.7358 127.852C34.8665 127.599 34.9318 127.298 34.9318 126.949C34.9318 126.599 34.8665 126.294 34.7358 126.033C34.6051 125.771 34.3963 125.57 34.1094 125.428C33.8224 125.283 33.4432 125.21 32.9716 125.21H31.1136V133H30.0568ZM34.1648 129.08L36.3125 133H35.0852L32.9716 129.08H34.1648ZM38.3326 133V124.273H43.5996V125.21H39.3894V128.159H43.3269V129.097H39.3894V132.062H43.6678V133H38.3326ZM46.4624 133H45.3545L48.559 124.273H49.6499L52.8545 133H51.7465L49.1386 125.653H49.0704L46.4624 133ZM46.8715 129.591H51.3374V130.528H46.8715V129.591ZM54.8138 133V124.273H55.8707V132.062H59.9275V133H54.8138ZM66.1388 133V124.273H71.4059V125.21H67.1957V128.159H71.1332V129.097H67.1957V132.062H71.4741V133H66.1388ZM78.6835 126.455C78.6323 126.023 78.4249 125.688 78.0613 125.449C77.6977 125.21 77.2516 125.091 76.7232 125.091C76.3369 125.091 75.9988 125.153 75.709 125.278C75.4221 125.403 75.1977 125.575 75.0357 125.794C74.8766 126.013 74.7971 126.261 74.7971 126.54C74.7971 126.773 74.8525 126.973 74.9633 127.141C75.0769 127.305 75.2218 127.443 75.3979 127.554C75.5741 127.662 75.7587 127.751 75.9519 127.822C76.1451 127.891 76.3227 127.946 76.4846 127.989L77.371 128.227C77.5982 128.287 77.8511 128.369 78.1295 128.474C78.4107 128.58 78.6792 128.723 78.9349 128.905C79.1934 129.084 79.4065 129.314 79.5741 129.595C79.7417 129.876 79.8255 130.222 79.8255 130.631C79.8255 131.102 79.7019 131.528 79.4548 131.909C79.2104 132.29 78.8525 132.592 78.3809 132.817C77.9121 133.041 77.3425 133.153 76.6721 133.153C76.0471 133.153 75.5059 133.053 75.0485 132.851C74.594 132.649 74.236 132.368 73.9746 132.007C73.7161 131.646 73.5698 131.227 73.5357 130.75H74.6266C74.655 131.08 74.7658 131.352 74.959 131.568C75.155 131.781 75.4022 131.94 75.7005 132.045C76.0016 132.148 76.3255 132.199 76.6721 132.199C77.0755 132.199 77.4377 132.134 77.7587 132.003C78.0798 131.869 78.334 131.685 78.5215 131.449C78.709 131.21 78.8028 130.932 78.8028 130.614C78.8028 130.324 78.7218 130.088 78.5599 129.906C78.3979 129.724 78.1849 129.577 77.9207 129.463C77.6565 129.349 77.371 129.25 77.0641 129.165L75.9903 128.858C75.3085 128.662 74.7687 128.382 74.371 128.018C73.9732 127.655 73.7744 127.179 73.7744 126.591C73.7744 126.102 73.9065 125.676 74.1707 125.312C74.4377 124.946 74.7957 124.662 75.2445 124.46C75.6962 124.256 76.2005 124.153 76.7573 124.153C77.3198 124.153 77.8198 124.254 78.2573 124.456C78.6948 124.655 79.0414 124.928 79.2971 125.274C79.5556 125.621 79.692 126.014 79.7062 126.455H78.6835ZM81.6858 125.21V124.273H88.2313V125.21H85.4869V133H84.4301V125.21H81.6858ZM89.8007 133H88.6928L91.8973 124.273H92.9882L96.1928 133H95.0848L92.4768 125.653H92.4087L89.8007 133ZM90.2098 129.591H94.6757V130.528H90.2098V129.591ZM96.6553 125.21V124.273H103.201V125.21H100.456V133H99.3996V125.21H96.6553ZM105.432 133V124.273H110.699V125.21H106.489V128.159H110.426V129.097H106.489V132.062H110.767V133H105.432ZM117.179 133V124.273H120.128C120.812 124.273 121.372 124.396 121.807 124.643C122.244 124.888 122.568 125.219 122.778 125.636C122.988 126.054 123.093 126.52 123.093 127.034C123.093 127.548 122.988 128.016 122.778 128.436C122.571 128.857 122.25 129.192 121.815 129.442C121.38 129.689 120.824 129.812 120.145 129.812H118.031V128.875H120.111C120.579 128.875 120.956 128.794 121.24 128.632C121.524 128.47 121.73 128.251 121.858 127.976C121.988 127.697 122.054 127.384 122.054 127.034C122.054 126.685 121.988 126.372 121.858 126.097C121.73 125.821 121.522 125.605 121.236 125.449C120.949 125.29 120.568 125.21 120.093 125.21H118.236V133H117.179ZM125.396 133V124.273H128.345C129.027 124.273 129.586 124.389 130.024 124.622C130.461 124.852 130.785 125.169 130.995 125.572C131.206 125.976 131.311 126.435 131.311 126.949C131.311 127.463 131.206 127.919 130.995 128.317C130.785 128.714 130.463 129.027 130.028 129.254C129.593 129.479 129.038 129.591 128.362 129.591H125.975V128.636H128.328C128.794 128.636 129.169 128.568 129.453 128.432C129.74 128.295 129.947 128.102 130.075 127.852C130.206 127.599 130.271 127.298 130.271 126.949C130.271 126.599 130.206 126.294 130.075 126.033C129.944 125.771 129.735 125.57 129.448 125.428C129.162 125.283 128.782 125.21 128.311 125.21H126.453V133H125.396ZM129.504 129.08L131.652 133H130.424L128.311 129.08H129.504ZM141.035 128.636C141.035 129.557 140.869 130.352 140.537 131.023C140.204 131.693 139.748 132.21 139.169 132.574C138.589 132.938 137.927 133.119 137.183 133.119C136.439 133.119 135.777 132.938 135.197 132.574C134.618 132.21 134.162 131.693 133.829 131.023C133.497 130.352 133.331 129.557 133.331 128.636C133.331 127.716 133.497 126.92 133.829 126.25C134.162 125.58 134.618 125.062 135.197 124.699C135.777 124.335 136.439 124.153 137.183 124.153C137.927 124.153 138.589 124.335 139.169 124.699C139.748 125.062 140.204 125.58 140.537 126.25C140.869 126.92 141.035 127.716 141.035 128.636ZM140.013 128.636C140.013 127.881 139.886 127.243 139.633 126.723C139.383 126.203 139.044 125.81 138.615 125.543C138.189 125.276 137.711 125.142 137.183 125.142C136.655 125.142 136.176 125.276 135.747 125.543C135.321 125.81 134.981 126.203 134.728 126.723C134.478 127.243 134.353 127.881 134.353 128.636C134.353 129.392 134.478 130.03 134.728 130.55C134.981 131.07 135.321 131.463 135.747 131.73C136.176 131.997 136.655 132.131 137.183 132.131C137.711 132.131 138.189 131.997 138.615 131.73C139.044 131.463 139.383 131.07 139.633 130.55C139.886 130.03 140.013 129.392 140.013 128.636ZM143.412 133V124.273H148.645V125.21H144.469V128.159H148.253V129.097H144.469V133H143.412ZM151.055 133V124.273H156.322V125.21H152.112V128.159H156.05V129.097H152.112V132.062H156.39V133H151.055ZM163.6 126.455C163.549 126.023 163.341 125.688 162.978 125.449C162.614 125.21 162.168 125.091 161.64 125.091C161.253 125.091 160.915 125.153 160.625 125.278C160.338 125.403 160.114 125.575 159.952 125.794C159.793 126.013 159.713 126.261 159.713 126.54C159.713 126.773 159.769 126.973 159.88 127.141C159.993 127.305 160.138 127.443 160.314 127.554C160.49 127.662 160.675 127.751 160.868 127.822C161.062 127.891 161.239 127.946 161.401 127.989L162.287 128.227C162.515 128.287 162.767 128.369 163.046 128.474C163.327 128.58 163.596 128.723 163.851 128.905C164.11 129.084 164.323 129.314 164.49 129.595C164.658 129.876 164.742 130.222 164.742 130.631C164.742 131.102 164.618 131.528 164.371 131.909C164.127 132.29 163.769 132.592 163.297 132.817C162.829 133.041 162.259 133.153 161.588 133.153C160.963 133.153 160.422 133.053 159.965 132.851C159.51 132.649 159.152 132.368 158.891 132.007C158.633 131.646 158.486 131.227 158.452 130.75H159.543C159.571 131.08 159.682 131.352 159.875 131.568C160.071 131.781 160.319 131.94 160.617 132.045C160.918 132.148 161.242 132.199 161.588 132.199C161.992 132.199 162.354 132.134 162.675 132.003C162.996 131.869 163.25 131.685 163.438 131.449C163.625 131.21 163.719 130.932 163.719 130.614C163.719 130.324 163.638 130.088 163.476 129.906C163.314 129.724 163.101 129.577 162.837 129.463C162.573 129.349 162.287 129.25 161.981 129.165L160.907 128.858C160.225 128.662 159.685 128.382 159.287 128.018C158.89 127.655 158.691 127.179 158.691 126.591C158.691 126.102 158.823 125.676 159.087 125.312C159.354 124.946 159.712 124.662 160.161 124.46C160.613 124.256 161.117 124.153 161.674 124.153C162.236 124.153 162.736 124.254 163.174 124.456C163.611 124.655 163.958 124.928 164.213 125.274C164.472 125.621 164.608 126.014 164.623 126.455H163.6ZM171.852 126.455C171.801 126.023 171.594 125.688 171.23 125.449C170.866 125.21 170.42 125.091 169.892 125.091C169.506 125.091 169.168 125.153 168.878 125.278C168.591 125.403 168.366 125.575 168.204 125.794C168.045 126.013 167.966 126.261 167.966 126.54C167.966 126.773 168.021 126.973 168.132 127.141C168.246 127.305 168.391 127.443 168.567 127.554C168.743 127.662 168.927 127.751 169.121 127.822C169.314 127.891 169.491 127.946 169.653 127.989L170.54 128.227C170.767 128.287 171.02 128.369 171.298 128.474C171.579 128.58 171.848 128.723 172.104 128.905C172.362 129.084 172.575 129.314 172.743 129.595C172.91 129.876 172.994 130.222 172.994 130.631C172.994 131.102 172.871 131.528 172.624 131.909C172.379 132.29 172.021 132.592 171.55 132.817C171.081 133.041 170.511 133.153 169.841 133.153C169.216 133.153 168.675 133.053 168.217 132.851C167.763 132.649 167.405 132.368 167.143 132.007C166.885 131.646 166.739 131.227 166.704 130.75H167.795C167.824 131.08 167.935 131.352 168.128 131.568C168.324 131.781 168.571 131.94 168.869 132.045C169.17 132.148 169.494 132.199 169.841 132.199C170.244 132.199 170.606 132.134 170.927 132.003C171.249 131.869 171.503 131.685 171.69 131.449C171.878 131.21 171.972 130.932 171.972 130.614C171.972 130.324 171.891 130.088 171.729 129.906C171.567 129.724 171.354 129.577 171.089 129.463C170.825 129.349 170.54 129.25 170.233 129.165L169.159 128.858C168.477 128.662 167.937 128.382 167.54 128.018C167.142 127.655 166.943 127.179 166.943 126.591C166.943 126.102 167.075 125.676 167.339 125.312C167.606 124.946 167.964 124.662 168.413 124.46C168.865 124.256 169.369 124.153 169.926 124.153C170.489 124.153 170.989 124.254 171.426 124.456C171.864 124.655 172.21 124.928 172.466 125.274C172.724 125.621 172.861 126.014 172.875 126.455H171.852ZM176.389 124.273V133H175.332V124.273H176.389ZM186.471 128.636C186.471 129.557 186.305 130.352 185.973 131.023C185.64 131.693 185.184 132.21 184.605 132.574C184.025 132.938 183.363 133.119 182.619 133.119C181.875 133.119 181.213 132.938 180.633 132.574C180.054 132.21 179.598 131.693 179.265 131.023C178.933 130.352 178.767 129.557 178.767 128.636C178.767 127.716 178.933 126.92 179.265 126.25C179.598 125.58 180.054 125.062 180.633 124.699C181.213 124.335 181.875 124.153 182.619 124.153C183.363 124.153 184.025 124.335 184.605 124.699C185.184 125.062 185.64 125.58 185.973 126.25C186.305 126.92 186.471 127.716 186.471 128.636ZM185.449 128.636C185.449 127.881 185.322 127.243 185.069 126.723C184.819 126.203 184.48 125.81 184.051 125.543C183.625 125.276 183.147 125.142 182.619 125.142C182.091 125.142 181.612 125.276 181.183 125.543C180.757 125.81 180.417 126.203 180.164 126.723C179.914 127.243 179.789 127.881 179.789 128.636C179.789 129.392 179.914 130.03 180.164 130.55C180.417 131.07 180.757 131.463 181.183 131.73C181.612 131.997 182.091 132.131 182.619 132.131C183.147 132.131 183.625 131.997 184.051 131.73C184.48 131.463 184.819 131.07 185.069 130.55C185.322 130.03 185.449 129.392 185.449 128.636ZM195.769 124.273V133H194.746L189.99 126.148H189.905V133H188.848V124.273H189.871L194.644 131.142H194.729V124.273H195.769ZM198.841 133H197.733L200.938 124.273H202.029L205.233 133H204.125L201.517 125.653H201.449L198.841 133ZM199.25 129.591H203.716V130.528H199.25V129.591ZM207.193 133V124.273H208.25V132.062H212.306V133H207.193Z" fill="#333333"/>
<path d="M64 10L72 18.2555V84H64V10Z" fill="#333333"/>
<path d="M180 5.99979L172 14.9998V83.9998H180V5.99979Z" fill="#333333"/>
<path d="M162.37 0L162.009 11.9644L132.697 41.4915L127 35.8749L162.37 0Z" fill="#333333"/>
<path d="M77.5826 1.02463L78.3953 13.0388L127.613 61.3983L133.22 55.6919L77.5826 1.02463Z" fill="#333333"/>
<path d="M64 21.7924L69.8017 16L127.974 74.2658L122.172 80.0582L64 21.7924Z" fill="#333333"/>
<path d="M133.057 66.6923L127.186 60.9695L172 14.9998L177.87 20.7225L133.057 66.6923Z" fill="#333333"/>
</svg>
