<svg width="365" height="75" viewBox="0 0 365 75" fill="none" xmlns="http://www.w3.org/2000/svg">
<path d="M109.031 17.6364H111.974L118.894 34.5398H119.133L126.053 17.6364H128.997V38H126.69V22.5284H126.491L120.127 38H117.9L111.536 22.5284H111.338V38H109.031V17.6364ZM136.176 38H133.591L141.068 17.6364H143.614L151.091 38H148.506L142.42 20.858H142.261L136.176 38ZM137.131 30.0455H147.551V32.233H137.131V30.0455ZM155.663 38V17.6364H162.543C164.134 17.6364 165.44 17.9081 166.461 18.4517C167.482 18.9886 168.238 19.7277 168.728 20.669C169.219 21.6103 169.464 22.6809 169.464 23.8807C169.464 25.0805 169.219 26.1444 168.728 27.0724C168.238 28.0005 167.485 28.7296 166.471 29.2599C165.457 29.7836 164.161 30.0455 162.583 30.0455H157.015V27.8182H162.504C163.591 27.8182 164.466 27.6591 165.129 27.3409C165.798 27.0227 166.282 26.572 166.58 25.9886C166.885 25.3987 167.038 24.696 167.038 23.8807C167.038 23.0653 166.885 22.3527 166.58 21.7429C166.275 21.133 165.788 20.6624 165.119 20.331C164.449 19.9929 163.564 19.8239 162.464 19.8239H158.129V38H155.663ZM165.248 28.8523L170.259 38H167.396L162.464 28.8523H165.248ZM188.893 24C188.675 23.3305 188.386 22.7306 188.028 22.2003C187.677 21.6634 187.256 21.206 186.766 20.8281C186.282 20.4503 185.731 20.1619 185.115 19.9631C184.499 19.7642 183.822 19.6648 183.087 19.6648C181.88 19.6648 180.783 19.9763 179.795 20.5994C178.808 21.2225 178.022 22.1406 177.439 23.3537C176.856 24.5668 176.564 26.0549 176.564 27.8182C176.564 29.5814 176.859 31.0696 177.449 32.2827C178.039 33.4957 178.838 34.4138 179.845 35.0369C180.853 35.66 181.986 35.9716 183.246 35.9716C184.412 35.9716 185.44 35.723 186.328 35.2259C187.223 34.7221 187.919 34.0128 188.416 33.098C188.92 32.1766 189.172 31.0928 189.172 29.8466L189.927 30.0057H183.802V27.8182H191.558V30.0057C191.558 31.6828 191.2 33.1411 190.484 34.3807C189.775 35.6203 188.794 36.5814 187.541 37.2642C186.295 37.9403 184.863 38.2784 183.246 38.2784C181.443 38.2784 179.858 37.8542 178.493 37.0057C177.134 36.1572 176.073 34.9508 175.311 33.3864C174.555 31.822 174.177 29.9659 174.177 27.8182C174.177 26.2074 174.393 24.759 174.824 23.473C175.261 22.1804 175.878 21.08 176.673 20.1719C177.469 19.2637 178.41 18.5677 179.497 18.0838C180.584 17.5999 181.781 17.358 183.087 17.358C184.16 17.358 185.161 17.5204 186.089 17.8452C187.024 18.1634 187.856 18.6174 188.585 19.2074C189.321 19.7907 189.934 20.4901 190.425 21.3054C190.915 22.1141 191.253 23.0123 191.439 24H188.893ZM214.363 27.8182C214.363 29.9659 213.976 31.822 213.2 33.3864C212.424 34.9508 211.361 36.1572 210.008 37.0057C208.656 37.8542 207.111 38.2784 205.375 38.2784C203.638 38.2784 202.093 37.8542 200.741 37.0057C199.389 36.1572 198.325 34.9508 197.549 33.3864C196.774 31.822 196.386 29.9659 196.386 27.8182C196.386 25.6705 196.774 23.8144 197.549 22.25C198.325 20.6856 199.389 19.4792 200.741 18.6307C202.093 17.7822 203.638 17.358 205.375 17.358C207.111 17.358 208.656 17.7822 210.008 18.6307C211.361 19.4792 212.424 20.6856 213.2 22.25C213.976 23.8144 214.363 25.6705 214.363 27.8182ZM211.977 27.8182C211.977 26.0549 211.682 24.5668 211.092 23.3537C210.509 22.1406 209.717 21.2225 208.716 20.5994C207.721 19.9763 206.608 19.6648 205.375 19.6648C204.142 19.6648 203.025 19.9763 202.024 20.5994C201.03 21.2225 200.237 22.1406 199.647 23.3537C199.064 24.5668 198.772 26.0549 198.772 27.8182C198.772 29.5814 199.064 31.0696 199.647 32.2827C200.237 33.4957 201.03 34.4138 202.024 35.0369C203.025 35.66 204.142 35.9716 205.375 35.9716C206.608 35.9716 207.721 35.66 208.716 35.0369C209.717 34.4138 210.509 33.4957 211.092 32.2827C211.682 31.0696 211.977 29.5814 211.977 27.8182ZM217.948 19.8239V17.6364H233.221V19.8239H226.818V38H224.352V19.8239H217.948ZM247.702 17.6364H250.645L257.565 34.5398H257.804L264.725 17.6364H267.668V38H265.361V22.5284H265.162L258.798 38H256.571L250.208 22.5284H250.009V38H247.702V17.6364ZM274.847 38H272.262L279.739 17.6364H282.285L289.762 38H287.177L281.092 20.858H280.932L274.847 38ZM275.802 30.0455H286.222V32.233H275.802V30.0455ZM294.334 38V17.6364H301.215C302.805 17.6364 304.111 17.9081 305.132 18.4517C306.153 18.9886 306.909 19.7277 307.399 20.669C307.89 21.6103 308.135 22.6809 308.135 23.8807C308.135 25.0805 307.89 26.1444 307.399 27.0724C306.909 28.0005 306.156 28.7296 305.142 29.2599C304.128 29.7836 302.832 30.0455 301.254 30.0455H295.686V27.8182H301.175C302.262 27.8182 303.137 27.6591 303.8 27.3409C304.469 27.0227 304.953 26.572 305.252 25.9886C305.556 25.3987 305.709 24.696 305.709 23.8807C305.709 23.0653 305.556 22.3527 305.252 21.7429C304.947 21.133 304.459 20.6624 303.79 20.331C303.12 19.9929 302.235 19.8239 301.135 19.8239H296.8V38H294.334ZM303.919 28.8523L308.93 38H306.067L301.135 28.8523H303.919ZM312.53 19.8239V17.6364H327.803V19.8239H321.4V38H318.934V19.8239H312.53ZM335.475 17.6364V38H333.009V17.6364H335.475ZM357.967 17.6364V38H355.58L344.484 22.0114H344.285V38H341.819V17.6364H344.205L355.342 33.6648H355.541V17.6364H357.967Z" fill="#333333"/>
<path d="M108.119 61V50.8182H111.748C112.537 50.8182 113.191 50.9541 113.712 51.2259C114.235 51.4976 114.626 51.8738 114.885 52.3544C115.143 52.8317 115.273 53.3835 115.273 54.0099C115.273 54.633 115.142 55.1816 114.88 55.6555C114.621 56.1262 114.23 56.4924 113.707 56.7543C113.186 57.0161 112.532 57.147 111.743 57.147H108.994V55.8246H111.604C112.101 55.8246 112.505 55.7533 112.817 55.6108C113.132 55.4683 113.362 55.2611 113.508 54.9893C113.654 54.7176 113.727 54.3911 113.727 54.0099C113.727 53.6255 113.652 53.2924 113.503 53.0107C113.357 52.7289 113.127 52.5135 112.812 52.3643C112.5 52.2119 112.091 52.1357 111.584 52.1357H109.655V61H108.119ZM113.145 56.4062L115.661 61H113.911L111.445 56.4062H113.145ZM117.842 61V50.8182H124.226V52.1406H119.378V55.2429H123.892V56.5604H119.378V59.6776H124.285V61H117.842ZM127.838 61H126.207L129.871 50.8182H131.646L135.31 61H133.679L130.801 52.6676H130.721L127.838 61ZM128.111 57.0128H133.401V58.3054H128.111V57.0128ZM137.48 61V50.8182H139.017V59.6776H143.63V61H137.48ZM150.488 61V50.8182H156.871V52.1406H152.024V55.2429H156.538V56.5604H152.024V59.6776H156.931V61H150.488ZM165.177 53.4929C165.124 53.0223 164.905 52.6577 164.52 52.3991C164.136 52.1373 163.652 52.0064 163.069 52.0064C162.651 52.0064 162.29 52.0727 161.985 52.2053C161.68 52.3345 161.443 52.5135 161.274 52.7422C161.108 52.9676 161.025 53.2244 161.025 53.5128C161.025 53.7547 161.082 53.9635 161.194 54.1392C161.31 54.3149 161.461 54.4624 161.647 54.5817C161.836 54.6977 162.038 54.7955 162.253 54.875C162.469 54.9512 162.676 55.0142 162.875 55.0639L163.869 55.3224C164.194 55.402 164.527 55.5097 164.868 55.6456C165.21 55.7815 165.526 55.9605 165.818 56.1825C166.11 56.4046 166.345 56.6797 166.524 57.0078C166.706 57.3359 166.797 57.7287 166.797 58.1861C166.797 58.7628 166.648 59.2749 166.35 59.7223C166.055 60.1697 165.626 60.5227 165.062 60.7812C164.502 61.0398 163.824 61.169 163.029 61.169C162.267 61.169 161.607 61.0481 161.05 60.8061C160.493 60.5642 160.057 60.2211 159.743 59.777C159.428 59.3295 159.254 58.7992 159.221 58.1861H160.762C160.792 58.554 160.911 58.8606 161.12 59.1058C161.332 59.3478 161.602 59.5284 161.93 59.6477C162.262 59.7637 162.624 59.8217 163.019 59.8217C163.453 59.8217 163.839 59.7538 164.177 59.6179C164.519 59.4787 164.787 59.2865 164.983 59.0412C165.178 58.7926 165.276 58.5026 165.276 58.1712C165.276 57.8696 165.19 57.6226 165.017 57.4304C164.848 57.2382 164.618 57.0791 164.326 56.9531C164.038 56.8272 163.712 56.7161 163.347 56.62L162.144 56.2919C161.329 56.0698 160.682 55.7434 160.205 55.3125C159.731 54.8816 159.494 54.3116 159.494 53.6023C159.494 53.0156 159.653 52.5036 159.971 52.0661C160.289 51.6286 160.72 51.2888 161.264 51.0469C161.807 50.8016 162.421 50.679 163.103 50.679C163.793 50.679 164.401 50.8 164.928 51.0419C165.458 51.2839 165.876 51.617 166.181 52.0412C166.486 52.4621 166.645 52.946 166.658 53.4929H165.177ZM168.831 52.1406V50.8182H176.711V52.1406H173.534V61H172.003V52.1406H168.831ZM178.809 61H177.178L180.843 50.8182H182.617L186.281 61H184.651L181.772 52.6676H181.693L178.809 61ZM179.083 57.0128H184.372V58.3054H179.083V57.0128ZM186.747 52.1406V50.8182H194.627V52.1406H191.45V61H189.918V52.1406H186.747ZM197.068 61V50.8182H203.451V52.1406H198.604V55.2429H203.118V56.5604H198.604V59.6776H203.511V61H197.068ZM210.608 61V50.8182H214.238C215.03 50.8182 215.686 50.9624 216.206 51.2507C216.727 51.5391 217.116 51.9335 217.375 52.4339C217.633 52.9311 217.763 53.4912 217.763 54.1143C217.763 54.7408 217.632 55.3042 217.37 55.8047C217.111 56.3018 216.72 56.6963 216.197 56.9879C215.676 57.2763 215.022 57.4205 214.233 57.4205H211.737V56.1179H214.094C214.594 56.1179 215 56.0317 215.312 55.8594C215.623 55.6837 215.852 55.4451 215.998 55.1435C216.143 54.8419 216.216 54.4988 216.216 54.1143C216.216 53.7299 216.143 53.3885 215.998 53.0902C215.852 52.7919 215.621 52.5582 215.307 52.3892C214.995 52.2202 214.584 52.1357 214.074 52.1357H212.145V61H210.608ZM220.264 61V50.8182H223.893C224.682 50.8182 225.336 50.9541 225.857 51.2259C226.38 51.4976 226.771 51.8738 227.03 52.3544C227.288 52.8317 227.418 53.3835 227.418 54.0099C227.418 54.633 227.287 55.1816 227.025 55.6555C226.766 56.1262 226.375 56.4924 225.852 56.7543C225.331 57.0161 224.677 57.147 223.888 57.147H221.139V55.8246H223.749C224.246 55.8246 224.65 55.7533 224.962 55.6108C225.277 55.4683 225.507 55.2611 225.653 54.9893C225.799 54.7176 225.871 54.3911 225.871 54.0099C225.871 53.6255 225.797 53.2924 225.648 53.0107C225.502 52.7289 225.272 52.5135 224.957 52.3643C224.645 52.2119 224.236 52.1357 223.729 52.1357H221.8V61H220.264ZM225.29 56.4062L227.805 61H226.055L223.59 56.4062H225.29ZM238.831 55.9091C238.831 56.9962 238.633 57.9309 238.235 58.7131C237.837 59.492 237.292 60.0919 236.599 60.5128C235.91 60.9304 235.126 61.1392 234.248 61.1392C233.366 61.1392 232.579 60.9304 231.886 60.5128C231.197 60.0919 230.653 59.4903 230.255 58.7081C229.858 57.9259 229.659 56.9929 229.659 55.9091C229.659 54.822 229.858 53.889 230.255 53.1101C230.653 52.3279 231.197 51.728 231.886 51.3104C232.579 50.8894 233.366 50.679 234.248 50.679C235.126 50.679 235.91 50.8894 236.599 51.3104C237.292 51.728 237.837 52.3279 238.235 53.1101C238.633 53.889 238.831 54.822 238.831 55.9091ZM237.31 55.9091C237.31 55.0805 237.176 54.3828 236.907 53.8161C236.642 53.246 236.278 52.8151 235.814 52.5234C235.353 52.2285 234.831 52.081 234.248 52.081C233.661 52.081 233.137 52.2285 232.677 52.5234C232.216 52.8151 231.851 53.246 231.583 53.8161C231.318 54.3828 231.185 55.0805 231.185 55.9091C231.185 56.7377 231.318 57.437 231.583 58.0071C231.851 58.5739 232.216 59.0047 232.677 59.2997C233.137 59.5914 233.661 59.7372 234.248 59.7372C234.831 59.7372 235.353 59.5914 235.814 59.2997C236.278 59.0047 236.642 58.5739 236.907 58.0071C237.176 57.437 237.31 56.7377 237.31 55.9091ZM241.447 61V50.8182H247.761V52.1406H242.983V55.2429H247.308V56.5604H242.983V61H241.447ZM250.35 61V50.8182H256.733V52.1406H251.886V55.2429H256.4V56.5604H251.886V59.6776H256.793V61H250.35ZM265.039 53.4929C264.986 53.0223 264.767 52.6577 264.382 52.3991C263.998 52.1373 263.514 52.0064 262.931 52.0064C262.513 52.0064 262.152 52.0727 261.847 52.2053C261.542 52.3345 261.305 52.5135 261.136 52.7422C260.97 52.9676 260.887 53.2244 260.887 53.5128C260.887 53.7547 260.944 53.9635 261.056 54.1392C261.172 54.3149 261.323 54.4624 261.509 54.5817C261.698 54.6977 261.9 54.7955 262.115 54.875C262.331 54.9512 262.538 55.0142 262.737 55.0639L263.731 55.3224C264.056 55.402 264.389 55.5097 264.73 55.6456C265.072 55.7815 265.388 55.9605 265.68 56.1825C265.972 56.4046 266.207 56.6797 266.386 57.0078C266.568 57.3359 266.659 57.7287 266.659 58.1861C266.659 58.7628 266.51 59.2749 266.212 59.7223C265.917 60.1697 265.488 60.5227 264.924 60.7812C264.364 61.0398 263.686 61.169 262.891 61.169C262.129 61.169 261.469 61.0481 260.912 60.8061C260.355 60.5642 259.92 60.2211 259.605 59.777C259.29 59.3295 259.116 58.7992 259.083 58.1861H260.624C260.654 58.554 260.773 58.8606 260.982 59.1058C261.194 59.3478 261.464 59.5284 261.792 59.6477C262.124 59.7637 262.487 59.8217 262.881 59.8217C263.315 59.8217 263.701 59.7538 264.039 59.6179C264.381 59.4787 264.649 59.2865 264.845 59.0412C265.04 58.7926 265.138 58.5026 265.138 58.1712C265.138 57.8696 265.052 57.6226 264.88 57.4304C264.711 57.2382 264.48 57.0791 264.189 56.9531C263.9 56.8272 263.574 56.7161 263.209 56.62L262.006 56.2919C261.191 56.0698 260.544 55.7434 260.067 55.3125C259.593 54.8816 259.356 54.3116 259.356 53.6023C259.356 53.0156 259.515 52.5036 259.833 52.0661C260.152 51.6286 260.582 51.2888 261.126 51.0469C261.67 50.8016 262.283 50.679 262.966 50.679C263.655 50.679 264.263 50.8 264.79 51.0419C265.32 51.2839 265.738 51.617 266.043 52.0412C266.348 52.4621 266.507 52.946 266.52 53.4929H265.039ZM274.748 53.4929C274.695 53.0223 274.477 52.6577 274.092 52.3991C273.708 52.1373 273.224 52.0064 272.64 52.0064C272.223 52.0064 271.862 52.0727 271.557 52.2053C271.252 52.3345 271.015 52.5135 270.846 52.7422C270.68 52.9676 270.597 53.2244 270.597 53.5128C270.597 53.7547 270.654 53.9635 270.766 54.1392C270.882 54.3149 271.033 54.4624 271.219 54.5817C271.408 54.6977 271.61 54.7955 271.825 54.875C272.041 54.9512 272.248 55.0142 272.447 55.0639L273.441 55.3224C273.766 55.402 274.099 55.5097 274.44 55.6456C274.782 55.7815 275.098 55.9605 275.39 56.1825C275.681 56.4046 275.917 56.6797 276.096 57.0078C276.278 57.3359 276.369 57.7287 276.369 58.1861C276.369 58.7628 276.22 59.2749 275.922 59.7223C275.627 60.1697 275.198 60.5227 274.634 60.7812C274.074 61.0398 273.396 61.169 272.601 61.169C271.838 61.169 271.179 61.0481 270.622 60.8061C270.065 60.5642 269.629 60.2211 269.314 59.777C269 59.3295 268.826 58.7992 268.792 58.1861H270.334C270.364 58.554 270.483 58.8606 270.692 59.1058C270.904 59.3478 271.174 59.5284 271.502 59.6477C271.833 59.7637 272.196 59.8217 272.591 59.8217C273.025 59.8217 273.411 59.7538 273.749 59.6179C274.091 59.4787 274.359 59.2865 274.555 59.0412C274.75 58.7926 274.848 58.5026 274.848 58.1712C274.848 57.8696 274.762 57.6226 274.589 57.4304C274.42 57.2382 274.19 57.0791 273.898 56.9531C273.61 56.8272 273.283 56.7161 272.919 56.62L271.716 56.2919C270.9 56.0698 270.254 55.7434 269.777 55.3125C269.303 54.8816 269.066 54.3116 269.066 53.6023C269.066 53.0156 269.225 52.5036 269.543 52.0661C269.861 51.6286 270.292 51.2888 270.836 51.0469C271.379 50.8016 271.993 50.679 272.675 50.679C273.365 50.679 273.973 50.8 274.5 51.0419C275.03 51.2839 275.448 51.617 275.753 52.0412C276.058 52.4621 276.217 52.946 276.23 53.4929H274.748ZM280.441 50.8182V61H278.905V50.8182H280.441ZM292.223 55.9091C292.223 56.9962 292.024 57.9309 291.626 58.7131C291.229 59.492 290.683 60.0919 289.991 60.5128C289.301 60.9304 288.517 61.1392 287.639 61.1392C286.757 61.1392 285.97 60.9304 285.278 60.5128C284.588 60.0919 284.045 59.4903 283.647 58.7081C283.249 57.9259 283.05 56.9929 283.05 55.9091C283.05 54.822 283.249 53.889 283.647 53.1101C284.045 52.3279 284.588 51.728 285.278 51.3104C285.97 50.8894 286.757 50.679 287.639 50.679C288.517 50.679 289.301 50.8894 289.991 51.3104C290.683 51.728 291.229 52.3279 291.626 53.1101C292.024 53.889 292.223 54.822 292.223 55.9091ZM290.702 55.9091C290.702 55.0805 290.567 54.3828 290.299 53.8161C290.034 53.246 289.669 52.8151 289.205 52.5234C288.744 52.2285 288.222 52.081 287.639 52.081C287.052 52.081 286.529 52.2285 286.068 52.5234C285.607 52.8151 285.243 53.246 284.974 53.8161C284.709 54.3828 284.577 55.0805 284.577 55.9091C284.577 56.7377 284.709 57.437 284.974 58.0071C285.243 58.5739 285.607 59.0047 286.068 59.2997C286.529 59.5914 287.052 59.7372 287.639 59.7372C288.222 59.7372 288.744 59.5914 289.205 59.2997C289.669 59.0047 290.034 58.5739 290.299 58.0071C290.567 57.437 290.702 56.7377 290.702 55.9091ZM303.056 50.8182V61H301.644L296.469 53.5327H296.374V61H294.838V50.8182H296.26L301.44 58.2955H301.535V50.8182H303.056ZM306.857 61H305.227L308.891 50.8182H310.665L314.33 61H312.699L309.82 52.6676H309.741L306.857 61ZM307.131 57.0128H312.42V58.3054H307.131V57.0128ZM316.5 61V50.8182H318.036V59.6776H322.65V61H316.5Z" fill="#333333"/>
<path d="M0 8.92856L6.89655 16.2996V75H0V8.92856Z" fill="#333333"/>
<path d="M100 5.35696L93.1034 13.3927V74.9998H100V5.35696Z" fill="#333333"/>
<path d="M84.802 0L84.4903 10.6825L59.2214 37.046L54.3104 32.0312L84.802 0Z" fill="#333333"/>
<path d="M11.7091 0.914856L12.4098 11.6418L54.8386 54.8199L59.6721 49.7249L11.7091 0.914856Z" fill="#333333"/>
<path d="M0 19.4575L5.0015 14.2857L55.1496 66.3088L50.1481 71.4805L0 19.4575Z" fill="#333333"/>
<path d="M59.5318 59.5467L54.4711 54.4371L93.1035 13.3927L98.1642 18.5023L59.5318 59.5467Z" fill="#333333"/>
</svg>
