<svg aria-hidden="true" style="position: absolute; width: 0; height: 0; overflow: hidden;" version="1.1"
  xmlns="http://www.w3.org/2000/svg" xmlns:xlink="http://www.w3.org/1999/xlink">
  <defs>
    <symbol id="chevrons-up" viewBox="0 0 24 24">
      <path
        d="M17.707 10.293l-5-5c-0.391-0.391-1.024-0.391-1.414 0l-5 5c-0.391 0.391-0.391 1.024 0 1.414s1.024 0.391 1.414 0l4.293-4.293 4.293 4.293c0.391 0.391 1.024 0.391 1.414 0s0.391-1.024 0-1.414zM17.707 17.293l-5-5c-0.391-0.391-1.024-0.391-1.414 0l-5 5c-0.391 0.391-0.391 1.024 0 1.414s1.024 0.391 1.414 0l4.293-4.293 4.293 4.293c0.391 0.391 1.024 0.391 1.414 0s0.391-1.024 0-1.414z">
      </path>
    </symbol>
  </defs>
</svg>