<svg aria-hidden="true" style="position: absolute; width: 0; height: 0; overflow: hidden;" version="1.1"
  xmlns="http://www.w3.org/2000/svg" xmlns:xlink="http://www.w3.org/1999/xlink">
  <defs>
    <symbol id="margot-logo" viewBox="0 0 360 75" fill="none" xmlns="http://www.w3.org/2000/svg">
      <path
        d="M129.759 37.216V38H122.087V37.216L123.627 37.02C123.925 36.9827 124.103 36.908 124.159 36.796C124.215 36.6653 124.243 36.2827 124.243 35.648V21.256L119.119 35.76H116.123L111.055 21.34V35.648C111.055 36.2827 111.083 36.6653 111.139 36.796C111.195 36.908 111.372 36.9827 111.671 37.02L113.211 37.216V38H107.779V37.216L109.319 37.02C109.617 36.9827 109.795 36.908 109.851 36.796C109.907 36.6653 109.935 36.2827 109.935 35.648V21.312C109.935 20.6773 109.907 20.304 109.851 20.192C109.795 20.0613 109.617 19.9773 109.319 19.94L107.779 19.744V18.96H113.687L118.811 33.52L124.019 18.96H129.759V19.744L128.219 19.94C127.92 19.9773 127.743 20.0613 127.687 20.192C127.631 20.304 127.603 20.6773 127.603 21.312V35.648C127.603 36.2827 127.631 36.6653 127.687 36.796C127.743 36.908 127.92 36.9827 128.219 37.02L129.759 37.216ZM137.601 37.216V38H132.197V37.216L133.737 37.02C133.943 36.9827 134.092 36.9453 134.185 36.908C134.279 36.852 134.363 36.7307 134.437 36.544C134.512 36.3573 134.615 36.0587 134.745 35.648L140.093 18.96H142.501L147.877 35.648C148.008 36.0587 148.111 36.3573 148.185 36.544C148.26 36.7307 148.344 36.852 148.437 36.908C148.549 36.9453 148.699 36.9827 148.885 37.02L150.425 37.216V38H142.697V37.216L144.237 37.02C144.536 36.9827 144.695 36.908 144.713 36.796C144.751 36.6653 144.667 36.2827 144.461 35.648L143.397 32.176H136.929L135.837 35.648C135.651 36.2827 135.567 36.6653 135.585 36.796C135.604 36.908 135.763 36.9827 136.061 37.02L137.601 37.216ZM137.265 31.196H143.089L140.205 21.9L137.265 31.196ZM152.852 19.744V18.96H161.308C163.268 18.96 164.78 19.3987 165.844 20.276C166.908 21.1533 167.44 22.3293 167.44 23.804V24.448C167.44 25.568 167.132 26.52 166.516 27.304C165.9 28.088 165.013 28.648 163.856 28.984L167.356 35.648C167.58 36.0587 167.748 36.3573 167.86 36.544C167.972 36.7307 168.075 36.852 168.168 36.908C168.28 36.9453 168.429 36.9827 168.616 37.02L169.876 37.216V38H164.64L160.412 29.32H158.368V35.648C158.368 36.2827 158.396 36.6653 158.452 36.796C158.508 36.908 158.685 36.9827 158.984 37.02L160.524 37.216V38H152.852V37.216L154.392 37.02C154.691 36.9827 154.868 36.908 154.924 36.796C154.98 36.6653 155.008 36.2827 155.008 35.648V21.312C155.008 20.6773 154.98 20.304 154.924 20.192C154.868 20.0613 154.691 19.9773 154.392 19.94L152.852 19.744ZM161.308 19.94H158.368V28.34H161.308C162.129 28.34 162.755 28.088 163.184 27.584C163.632 27.0613 163.856 26.1093 163.856 24.728V23.524C163.856 22.1427 163.632 21.2 163.184 20.696C162.755 20.192 162.129 19.94 161.308 19.94ZM181.394 30.16V29.376H189.346V30.16L187.806 30.356C187.508 30.3933 187.33 30.4773 187.274 30.608C187.218 30.72 187.19 31.0933 187.19 31.728V38H186.434C185.93 37.4773 185.37 37.0387 184.754 36.684C184.25 37.132 183.653 37.5147 182.962 37.832C182.272 38.1307 181.432 38.28 180.442 38.28C178.912 38.28 177.596 37.8973 176.494 37.132C175.412 36.348 174.581 35.2747 174.002 33.912C173.424 32.5307 173.134 30.9627 173.134 29.208V27.444C173.134 25.7453 173.424 24.2427 174.002 22.936C174.581 21.6107 175.43 20.5747 176.55 19.828C177.67 19.0627 179.042 18.68 180.666 18.68C182.197 18.68 183.457 18.96 184.446 19.52C185.454 20.0613 186.192 20.7893 186.658 21.704C187.125 22.6 187.302 23.58 187.19 24.644L183.914 25.456C184.12 23.5893 183.914 22.1613 183.298 21.172C182.682 20.164 181.768 19.66 180.554 19.66C177.997 19.66 176.718 21.928 176.718 26.464V30.468C176.718 35.0227 178.072 37.3 180.778 37.3C181.376 37.3 181.973 37.1787 182.57 36.936C183.186 36.6933 183.7 36.3387 184.11 35.872V31.728C184.11 31.0933 184.082 30.7107 184.026 30.58C183.97 30.4493 183.793 30.3747 183.494 30.356L181.394 30.16ZM208.277 27.584V29.348C208.277 32.2227 207.633 34.4347 206.345 35.984C205.075 37.5147 203.19 38.28 200.689 38.28C198.187 38.28 196.293 37.5147 195.005 35.984C193.735 34.4347 193.101 32.2227 193.101 29.348V27.584C193.101 24.7093 193.735 22.5067 195.005 20.976C196.293 19.4453 198.187 18.68 200.689 18.68C203.19 18.68 205.075 19.4453 206.345 20.976C207.633 22.5067 208.277 24.7093 208.277 27.584ZM204.693 26.184C204.693 24.5413 204.553 23.2533 204.273 22.32C203.993 21.368 203.554 20.6867 202.957 20.276C202.378 19.8653 201.622 19.66 200.689 19.66C199.774 19.66 199.018 19.8653 198.421 20.276C197.823 20.6867 197.385 21.368 197.105 22.32C196.825 23.2533 196.685 24.5413 196.685 26.184V30.748C196.685 32.372 196.825 33.66 197.105 34.612C197.385 35.564 197.823 36.2547 198.421 36.684C199.018 37.0947 199.774 37.3 200.689 37.3C201.622 37.3 202.378 37.0947 202.957 36.684C203.554 36.2547 203.993 35.564 204.273 34.612C204.553 33.66 204.693 32.372 204.693 30.748V26.184ZM211.856 18.96H227.256V23.776H226.472L225.576 20.668C225.52 20.4253 225.455 20.2573 225.38 20.164C225.324 20.052 225.203 19.9867 225.016 19.968C224.829 19.9493 224.512 19.94 224.064 19.94H221.236V35.648C221.236 36.2827 221.264 36.6653 221.32 36.796C221.376 36.908 221.553 36.9827 221.852 37.02L223.392 37.216V38H215.72V37.216L217.26 37.02C217.559 36.9827 217.736 36.908 217.792 36.796C217.848 36.6653 217.876 36.2827 217.876 35.648V19.94H215.048C214.619 19.94 214.301 19.9493 214.096 19.968C213.909 19.9867 213.788 20.052 213.732 20.164C213.676 20.2573 213.611 20.4253 213.536 20.668L212.64 23.776H211.856V18.96ZM259.844 37.216V38H252.172V37.216L253.712 37.02C254.01 36.9827 254.188 36.908 254.244 36.796C254.3 36.6653 254.328 36.2827 254.328 35.648V21.256L249.204 35.76H246.208L241.14 21.34V35.648C241.14 36.2827 241.168 36.6653 241.224 36.796C241.28 36.908 241.457 36.9827 241.756 37.02L243.296 37.216V38H237.864V37.216L239.404 37.02C239.702 36.9827 239.88 36.908 239.936 36.796C239.992 36.6653 240.02 36.2827 240.02 35.648V21.312C240.02 20.6773 239.992 20.304 239.936 20.192C239.88 20.0613 239.702 19.9773 239.404 19.94L237.864 19.744V18.96H243.772L248.896 33.52L254.104 18.96H259.844V19.744L258.304 19.94C258.005 19.9773 257.828 20.0613 257.772 20.192C257.716 20.304 257.688 20.6773 257.688 21.312V35.648C257.688 36.2827 257.716 36.6653 257.772 36.796C257.828 36.908 258.005 36.9827 258.304 37.02L259.844 37.216ZM267.686 37.216V38H262.282V37.216L263.822 37.02C264.028 36.9827 264.177 36.9453 264.27 36.908C264.364 36.852 264.448 36.7307 264.522 36.544C264.597 36.3573 264.7 36.0587 264.83 35.648L270.178 18.96H272.586L277.962 35.648C278.093 36.0587 278.196 36.3573 278.27 36.544C278.345 36.7307 278.429 36.852 278.522 36.908C278.634 36.9453 278.784 36.9827 278.97 37.02L280.51 37.216V38H272.782V37.216L274.322 37.02C274.621 36.9827 274.78 36.908 274.798 36.796C274.836 36.6653 274.752 36.2827 274.546 35.648L273.482 32.176H267.014L265.922 35.648C265.736 36.2827 265.652 36.6653 265.67 36.796C265.689 36.908 265.848 36.9827 266.146 37.02L267.686 37.216ZM267.35 31.196H273.174L270.29 21.9L267.35 31.196ZM282.937 19.744V18.96H291.393C293.353 18.96 294.865 19.3987 295.929 20.276C296.993 21.1533 297.525 22.3293 297.525 23.804V24.448C297.525 25.568 297.217 26.52 296.601 27.304C295.985 28.088 295.099 28.648 293.941 28.984L297.441 35.648C297.665 36.0587 297.833 36.3573 297.945 36.544C298.057 36.7307 298.16 36.852 298.253 36.908C298.365 36.9453 298.515 36.9827 298.701 37.02L299.961 37.216V38H294.725L290.497 29.32H288.453V35.648C288.453 36.2827 288.481 36.6653 288.537 36.796C288.593 36.908 288.771 36.9827 289.069 37.02L290.609 37.216V38H282.937V37.216L284.477 37.02C284.776 36.9827 284.953 36.908 285.009 36.796C285.065 36.6653 285.093 36.2827 285.093 35.648V21.312C285.093 20.6773 285.065 20.304 285.009 20.192C284.953 20.0613 284.776 19.9773 284.477 19.94L282.937 19.744ZM291.393 19.94H288.453V28.34H291.393C292.215 28.34 292.84 28.088 293.269 27.584C293.717 27.0613 293.941 26.1093 293.941 24.728V23.524C293.941 22.1427 293.717 21.2 293.269 20.696C292.84 20.192 292.215 19.94 291.393 19.94ZM301.571 18.96H316.971V23.776H316.187L315.291 20.668C315.235 20.4253 315.169 20.2573 315.095 20.164C315.039 20.052 314.917 19.9867 314.731 19.968C314.544 19.9493 314.227 19.94 313.779 19.94H310.951V35.648C310.951 36.2827 310.979 36.6653 311.035 36.796C311.091 36.908 311.268 36.9827 311.567 37.02L313.107 37.216V38H305.435V37.216L306.975 37.02C307.273 36.9827 307.451 36.908 307.507 36.796C307.563 36.6653 307.591 36.2827 307.591 35.648V19.94H304.763C304.333 19.94 304.016 19.9493 303.811 19.968C303.624 19.9867 303.503 20.052 303.447 20.164C303.391 20.2573 303.325 20.4253 303.251 20.668L302.355 23.776H301.571V18.96ZM319.917 19.744V18.96H327.589V19.744L326.049 19.94C325.75 19.9773 325.573 20.0613 325.517 20.192C325.461 20.304 325.433 20.6773 325.433 21.312V35.648C325.433 36.2827 325.461 36.6653 325.517 36.796C325.573 36.908 325.75 36.9827 326.049 37.02L327.589 37.216V38H319.917V37.216L321.457 37.02C321.756 36.9827 321.933 36.908 321.989 36.796C322.045 36.6653 322.073 36.2827 322.073 35.648V21.312C322.073 20.6773 322.045 20.304 321.989 20.192C321.933 20.0613 321.756 19.9773 321.457 19.94L319.917 19.744ZM343.223 19.744V18.96H348.655V19.744L347.115 19.94C346.816 19.9773 346.639 20.0613 346.583 20.192C346.527 20.304 346.499 20.6773 346.499 21.312V38H344.959L334.683 21.396V35.648C334.683 36.2827 334.711 36.6653 334.767 36.796C334.823 36.908 335 36.9827 335.299 37.02L336.839 37.216V38H331.407V37.216L332.947 37.02C333.245 36.9827 333.423 36.908 333.479 36.796C333.535 36.6653 333.563 36.2827 333.563 35.648V21.312C333.563 20.6773 333.535 20.304 333.479 20.192C333.423 20.0613 333.245 19.9773 332.947 19.94L331.407 19.744V18.96H337.035L345.379 32.372V21.312C345.379 20.6773 345.351 20.304 345.295 20.192C345.239 20.0613 345.061 19.9773 344.763 19.94L343.223 19.744Z"
        fill="#333333" />
      <path
        d="M108.004 61V50.8182H111.822C112.605 50.8182 113.261 50.9541 113.791 51.2259C114.325 51.4976 114.728 51.8788 114.999 52.3693C115.274 52.8565 115.412 53.425 115.412 54.0746C115.412 54.7275 115.273 55.2943 114.994 55.7749C114.719 56.2521 114.313 56.6217 113.776 56.8835C113.239 57.142 112.58 57.2713 111.798 57.2713H109.078V55.7401H111.549C112.006 55.7401 112.381 55.6771 112.673 55.5511C112.964 55.4219 113.18 55.2346 113.319 54.9893C113.461 54.7408 113.533 54.4358 113.533 54.0746C113.533 53.7133 113.461 53.4051 113.319 53.1499C113.176 52.8913 112.959 52.6958 112.668 52.5632C112.376 52.4273 112 52.3594 111.539 52.3594H109.849V61H108.004ZM113.264 56.3864L115.785 61H113.727L111.251 56.3864H113.264ZM117.81 61V50.8182H124.432V52.3643H119.654V55.1286H124.089V56.6747H119.654V59.4538H124.472V61H117.81ZM128.321 61H126.352L129.937 50.8182H132.214L135.803 61H133.835L131.115 52.9062H131.036L128.321 61ZM128.386 57.0078H133.755V58.4893H128.386V57.0078ZM137.844 61V50.8182H139.689V59.4538H144.173V61H137.844ZM150.647 61V50.8182H157.269V52.3643H152.491V55.1286H156.926V56.6747H152.491V59.4538H157.309V61H150.647ZM165.384 53.6172C165.338 53.183 165.142 52.8449 164.797 52.603C164.456 52.361 164.012 52.2401 163.465 52.2401C163.081 52.2401 162.751 52.2981 162.476 52.4141C162.201 52.5301 161.99 52.6875 161.844 52.8864C161.699 53.0852 161.624 53.3123 161.621 53.5675C161.621 53.7796 161.669 53.9635 161.765 54.1193C161.864 54.2751 161.998 54.4077 162.168 54.517C162.337 54.6231 162.524 54.7126 162.729 54.7855C162.935 54.8584 163.142 54.9197 163.351 54.9695L164.305 55.2081C164.69 55.2976 165.059 55.4186 165.414 55.571C165.772 55.7235 166.092 55.9157 166.373 56.1477C166.659 56.3797 166.884 56.6598 167.05 56.9879C167.215 57.3161 167.298 57.7005 167.298 58.1413C167.298 58.7379 167.146 59.2633 166.841 59.7173C166.536 60.1681 166.095 60.5211 165.518 60.7763C164.945 61.0282 164.251 61.1541 163.435 61.1541C162.643 61.1541 161.955 61.0315 161.372 60.7862C160.792 60.541 160.338 60.183 160.01 59.7124C159.685 59.2417 159.509 58.6683 159.483 57.9922H161.297C161.324 58.3468 161.433 58.6418 161.626 58.8771C161.818 59.1125 162.068 59.2881 162.376 59.4041C162.688 59.5201 163.036 59.5781 163.42 59.5781C163.821 59.5781 164.173 59.5185 164.474 59.3991C164.779 59.2765 165.018 59.1075 165.19 58.892C165.363 58.6733 165.45 58.4181 165.454 58.1264C165.45 57.8613 165.373 57.6425 165.22 57.4702C165.068 57.2945 164.854 57.1487 164.579 57.0327C164.307 56.9134 163.989 56.8073 163.624 56.7145L162.466 56.4162C161.627 56.2008 160.964 55.8743 160.477 55.4368C159.993 54.996 159.751 54.411 159.751 53.6818C159.751 53.0819 159.914 52.5566 160.239 52.1058C160.567 51.6551 161.012 51.3054 161.576 51.0568C162.139 50.8049 162.777 50.679 163.49 50.679C164.212 50.679 164.846 50.8049 165.389 51.0568C165.936 51.3054 166.365 51.6518 166.677 52.0959C166.988 52.5367 167.149 53.0438 167.159 53.6172H165.384ZM169.195 52.3643V50.8182H177.319V52.3643H174.172V61H172.342V52.3643H169.195ZM179.662 61H177.693L181.278 50.8182H183.555L187.144 61H185.175L182.456 52.9062H182.376L179.662 61ZM179.726 57.0078H185.096V58.4893H179.726V57.0078ZM187.507 52.3643V50.8182H195.631V52.3643H192.484V61H190.654V52.3643H187.507ZM197.897 61V50.8182H204.519V52.3643H199.741V55.1286H204.176V56.6747H199.741V59.4538H204.559V61H197.897ZM211.273 61V50.8182H215.092C215.874 50.8182 216.53 50.964 217.06 51.2557C217.594 51.5473 217.997 51.9484 218.268 52.4588C218.544 52.9659 218.681 53.5426 218.681 54.1889C218.681 54.8419 218.544 55.4219 218.268 55.929C217.993 56.4361 217.587 56.8355 217.05 57.1271C216.513 57.4155 215.852 57.5597 215.067 57.5597H212.536V56.0433H214.818C215.276 56.0433 215.65 55.9638 215.942 55.8047C216.233 55.6456 216.449 55.4268 216.588 55.1484C216.731 54.87 216.802 54.5502 216.802 54.1889C216.802 53.8277 216.731 53.5095 216.588 53.2344C216.449 52.9593 216.232 52.7455 215.937 52.593C215.645 52.4373 215.269 52.3594 214.808 52.3594H213.118V61H211.273ZM220.983 61V50.8182H224.801C225.584 50.8182 226.24 50.9541 226.77 51.2259C227.304 51.4976 227.706 51.8788 227.978 52.3693C228.253 52.8565 228.391 53.425 228.391 54.0746C228.391 54.7275 228.252 55.2943 227.973 55.7749C227.698 56.2521 227.292 56.6217 226.755 56.8835C226.218 57.142 225.559 57.2713 224.776 57.2713H222.057V55.7401H224.528C224.985 55.7401 225.36 55.6771 225.651 55.5511C225.943 55.4219 226.159 55.2346 226.298 54.9893C226.44 54.7408 226.512 54.4358 226.512 54.0746C226.512 53.7133 226.44 53.4051 226.298 53.1499C226.155 52.8913 225.938 52.6958 225.647 52.5632C225.355 52.4273 224.979 52.3594 224.518 52.3594H222.828V61H220.983ZM226.243 56.3864L228.764 61H226.705L224.23 56.3864H226.243ZM239.887 55.9091C239.887 57.0062 239.681 57.9458 239.27 58.728C238.863 59.5069 238.306 60.1035 237.6 60.5178C236.897 60.9321 236.1 61.1392 235.208 61.1392C234.317 61.1392 233.518 60.9321 232.812 60.5178C232.109 60.1001 231.553 59.5019 231.142 58.723C230.734 57.9408 230.53 57.0028 230.53 55.9091C230.53 54.812 230.734 53.8741 231.142 53.0952C231.553 52.313 232.109 51.7147 232.812 51.3004C233.518 50.8861 234.317 50.679 235.208 50.679C236.1 50.679 236.897 50.8861 237.6 51.3004C238.306 51.7147 238.863 52.313 239.27 53.0952C239.681 53.8741 239.887 54.812 239.887 55.9091ZM238.032 55.9091C238.032 55.1368 237.911 54.4856 237.669 53.9553C237.431 53.4216 237.099 53.0189 236.675 52.7472C236.251 52.4721 235.762 52.3345 235.208 52.3345C234.655 52.3345 234.166 52.4721 233.742 52.7472C233.318 53.0189 232.984 53.4216 232.742 53.9553C232.504 54.4856 232.385 55.1368 232.385 55.9091C232.385 56.6813 232.504 57.3343 232.742 57.8679C232.984 58.3982 233.318 58.8009 233.742 59.076C234.166 59.3478 234.655 59.4837 235.208 59.4837C235.762 59.4837 236.251 59.3478 236.675 59.076C237.099 58.8009 237.431 58.3982 237.669 57.8679C237.911 57.3343 238.032 56.6813 238.032 55.9091ZM242.33 61V50.8182H248.853V52.3643H244.175V55.1286H248.406V56.6747H244.175V61H242.33ZM251.234 61V50.8182H257.856V52.3643H253.078V55.1286H257.513V56.6747H253.078V59.4538H257.895V61H251.234ZM265.971 53.6172C265.924 53.183 265.729 52.8449 265.384 52.603C265.043 52.361 264.599 52.2401 264.052 52.2401C263.667 52.2401 263.338 52.2981 263.062 52.4141C262.787 52.5301 262.577 52.6875 262.431 52.8864C262.285 53.0852 262.211 53.3123 262.207 53.5675C262.207 53.7796 262.255 53.9635 262.352 54.1193C262.451 54.2751 262.585 54.4077 262.754 54.517C262.923 54.6231 263.111 54.7126 263.316 54.7855C263.522 54.8584 263.729 54.9197 263.937 54.9695L264.892 55.2081C265.276 55.2976 265.646 55.4186 266.001 55.571C266.359 55.7235 266.678 55.9157 266.96 56.1477C267.245 56.3797 267.471 56.6598 267.636 56.9879C267.802 57.3161 267.885 57.7005 267.885 58.1413C267.885 58.7379 267.732 59.2633 267.428 59.7173C267.123 60.1681 266.682 60.5211 266.105 60.7763C265.532 61.0282 264.837 61.1541 264.022 61.1541C263.23 61.1541 262.542 61.0315 261.959 60.7862C261.379 60.541 260.925 60.183 260.597 59.7124C260.272 59.2417 260.096 58.6683 260.07 57.9922H261.884C261.911 58.3468 262.02 58.6418 262.212 58.8771C262.405 59.1125 262.655 59.2881 262.963 59.4041C263.275 59.5201 263.623 59.5781 264.007 59.5781C264.408 59.5781 264.759 59.5185 265.061 59.3991C265.366 59.2765 265.605 59.1075 265.777 58.892C265.949 58.6733 266.037 58.4181 266.04 58.1264C266.037 57.8613 265.959 57.6425 265.807 57.4702C265.654 57.2945 265.441 57.1487 265.165 57.0327C264.894 56.9134 264.575 56.8073 264.211 56.7145L263.053 56.4162C262.214 56.2008 261.551 55.8743 261.064 55.4368C260.58 54.996 260.338 54.411 260.338 53.6818C260.338 53.0819 260.5 52.5566 260.825 52.1058C261.153 51.6551 261.599 51.3054 262.163 51.0568C262.726 50.8049 263.364 50.679 264.077 50.679C264.799 50.679 265.432 50.8049 265.976 51.0568C266.523 51.3054 266.952 51.6518 267.263 52.0959C267.575 52.5367 267.736 53.0438 267.746 53.6172H265.971ZM275.763 53.6172C275.716 53.183 275.521 52.8449 275.176 52.603C274.835 52.361 274.39 52.2401 273.844 52.2401C273.459 52.2401 273.129 52.2981 272.854 52.4141C272.579 52.5301 272.369 52.6875 272.223 52.8864C272.077 53.0852 272.002 53.3123 271.999 53.5675C271.999 53.7796 272.047 53.9635 272.143 54.1193C272.243 54.2751 272.377 54.4077 272.546 54.517C272.715 54.6231 272.902 54.7126 273.108 54.7855C273.313 54.8584 273.52 54.9197 273.729 54.9695L274.684 55.2081C275.068 55.2976 275.438 55.4186 275.792 55.571C276.15 55.7235 276.47 55.9157 276.752 56.1477C277.037 56.3797 277.262 56.6598 277.428 56.9879C277.594 57.3161 277.677 57.7005 277.677 58.1413C277.677 58.7379 277.524 59.2633 277.219 59.7173C276.914 60.1681 276.474 60.5211 275.897 60.7763C275.323 61.0282 274.629 61.1541 273.814 61.1541C273.022 61.1541 272.334 61.0315 271.751 60.7862C271.171 60.541 270.716 60.183 270.388 59.7124C270.064 59.2417 269.888 58.6683 269.861 57.9922H271.676C271.703 58.3468 271.812 58.6418 272.004 58.8771C272.196 59.1125 272.447 59.2881 272.755 59.4041C273.066 59.5201 273.414 59.5781 273.799 59.5781C274.2 59.5781 274.551 59.5185 274.853 59.3991C275.158 59.2765 275.396 59.1075 275.569 58.892C275.741 58.6733 275.829 58.4181 275.832 58.1264C275.829 57.8613 275.751 57.6425 275.599 57.4702C275.446 57.2945 275.232 57.1487 274.957 57.0327C274.685 56.9134 274.367 56.8073 274.003 56.7145L272.844 56.4162C272.006 56.2008 271.343 55.8743 270.856 55.4368C270.372 54.996 270.13 54.411 270.13 53.6818C270.13 53.0819 270.292 52.5566 270.617 52.1058C270.945 51.6551 271.391 51.3054 271.954 51.0568C272.518 50.8049 273.156 50.679 273.868 50.679C274.591 50.679 275.224 50.8049 275.768 51.0568C276.314 51.3054 276.744 51.6518 277.055 52.0959C277.367 52.5367 277.528 53.0438 277.538 53.6172H275.763ZM281.866 50.8182V61H280.021V50.8182H281.866ZM293.661 55.9091C293.661 57.0062 293.455 57.9458 293.044 58.728C292.637 59.5069 292.08 60.1035 291.374 60.5178C290.671 60.9321 289.874 61.1392 288.983 61.1392C288.091 61.1392 287.292 60.9321 286.586 60.5178C285.884 60.1001 285.327 59.5019 284.916 58.723C284.508 57.9408 284.304 57.0028 284.304 55.9091C284.304 54.812 284.508 53.8741 284.916 53.0952C285.327 52.313 285.884 51.7147 286.586 51.3004C287.292 50.8861 288.091 50.679 288.983 50.679C289.874 50.679 290.671 50.8861 291.374 51.3004C292.08 51.7147 292.637 52.313 293.044 53.0952C293.455 53.8741 293.661 54.812 293.661 55.9091ZM291.806 55.9091C291.806 55.1368 291.685 54.4856 291.444 53.9553C291.205 53.4216 290.873 53.0189 290.449 52.7472C290.025 52.4721 289.536 52.3345 288.983 52.3345C288.429 52.3345 287.94 52.4721 287.516 52.7472C287.092 53.0189 286.759 53.4216 286.517 53.9553C286.278 54.4856 286.159 55.1368 286.159 55.9091C286.159 56.6813 286.278 57.3343 286.517 57.8679C286.759 58.3982 287.092 58.8009 287.516 59.076C287.94 59.3478 288.429 59.4837 288.983 59.4837C289.536 59.4837 290.025 59.3478 290.449 59.076C290.873 58.8009 291.205 58.3982 291.444 57.8679C291.685 57.3343 291.806 56.6813 291.806 55.9091ZM304.472 50.8182V61H302.831L298.034 54.0646H297.949V61H296.105V50.8182H297.755L302.548 57.7585H302.637V50.8182H304.472ZM308.489 61H306.52L310.105 50.8182H312.382L315.971 61H314.003L311.283 52.9062H311.204L308.489 61ZM308.554 57.0078H313.923V58.4893H308.554V57.0078ZM318.012 61V50.8182H319.857V59.4538H324.341V61H318.012Z"
        fill="#333333" />
      <path d="M0 8.92856L6.89655 16.2996V75H0V8.92856Z" fill="#333333" />
      <path d="M100 5.35696L93.1034 13.3927V74.9998H100V5.35696Z" fill="#333333" />
      <path d="M84.802 0L84.4903 10.6825L59.2214 37.046L54.3104 32.0312L84.802 0Z" fill="#333333" />
      <path d="M11.7091 0.914856L12.4098 11.6418L54.8386 54.8199L59.6721 49.7249L11.7091 0.914856Z" fill="#333333" />
      <path d="M0 19.4575L5.0015 14.2857L55.1496 66.3088L50.1481 71.4805L0 19.4575Z" fill="#333333" />
      <path d="M59.5318 59.5467L54.4711 54.4371L93.1035 13.3927L98.1642 18.5023L59.5318 59.5467Z" fill="#333333" />
    </symbol>

    <symbol id="margot-logo-two" viewBox="0 0 299 44" fill="none" xmlns="http://www.w3.org/2000/svg">
      <path d="M1.0755 5.11905L4.78403 9.34509V43H1.0755V5.11905Z" fill="#333333" />
      <path d="M57 5.06788L53.2914 5.06787V42.9999H57V5.06788Z" fill="#333333" />
      <path d="M45.2785 4.82187L50.1182 4.82188L32.8019 23.1125L30.1611 20.2373L45.2785 4.82187Z" fill="#333333" />
      <path d="M11.5399 26.3375L7.9113 23.1366L7.65656 42.8715L11.5399 42.4625V26.3375Z" fill="#333333" />
      <path d="M11.8302 5.37502L6.99054 5.375L30.5641 31.4301L33.1633 28.509L11.8302 5.37502Z" fill="#333333" />
      <path d="M1.0755 11.1556L3.76499 8.19046L27.9623 34.1402H23.1219L1.0755 11.1556Z" fill="#333333" />
      <path d="M33.0878 34.1401L30.3665 31.2106L43.7465 15.5875V22.0663L33.0878 34.1401Z" fill="#333333" />
      <path d="M46.4432 8.58439L50.1764 4.12704L50.3266 42.716L46.4432 42.3069V8.58439Z" fill="#333333" />
      <path
        d="M67.0568 40V31.2727H70.0057C70.6875 31.2727 71.2472 31.3892 71.6847 31.6222C72.1222 31.8523 72.446 32.169 72.6562 32.5724C72.8665 32.9759 72.9716 33.4347 72.9716 33.9489C72.9716 34.4631 72.8665 34.919 72.6562 35.3168C72.446 35.7145 72.1236 36.027 71.6889 36.2543C71.2543 36.4787 70.6989 36.5909 70.0227 36.5909H67.6364V35.6364H69.9886C70.4545 35.6364 70.8295 35.5682 71.1136 35.4318C71.4006 35.2955 71.608 35.1023 71.7358 34.8523C71.8665 34.5994 71.9318 34.2983 71.9318 33.9489C71.9318 33.5994 71.8665 33.294 71.7358 33.0327C71.6051 32.7713 71.3963 32.5696 71.1094 32.4276C70.8224 32.2827 70.4432 32.2102 69.9716 32.2102H68.1136V40H67.0568ZM71.1648 36.0795L73.3125 40H72.0852L69.9716 36.0795H71.1648ZM75.3326 40V31.2727H80.5996V32.2102H76.3894V35.1591H80.3269V36.0966H76.3894V39.0625H80.6678V40H75.3326ZM83.4624 40H82.3545L85.559 31.2727H86.6499L89.8545 40H88.7465L86.1386 32.6534H86.0704L83.4624 40ZM83.8715 36.5909H88.3374V37.5284H83.8715V36.5909ZM91.8138 40V31.2727H92.8707V39.0625H96.9275V40H91.8138ZM103.139 40V31.2727H108.406V32.2102H104.196V35.1591H108.133V36.0966H104.196V39.0625H108.474V40H103.139ZM115.683 33.4545C115.632 33.0227 115.425 32.6875 115.061 32.4489C114.698 32.2102 114.252 32.0909 113.723 32.0909C113.337 32.0909 112.999 32.1534 112.709 32.2784C112.422 32.4034 112.198 32.5753 112.036 32.794C111.877 33.0128 111.797 33.2614 111.797 33.5398C111.797 33.7727 111.852 33.973 111.963 34.1406C112.077 34.3054 112.222 34.4432 112.398 34.554C112.574 34.6619 112.759 34.7514 112.952 34.8224C113.145 34.8906 113.323 34.946 113.485 34.9886L114.371 35.2273C114.598 35.2869 114.851 35.3693 115.129 35.4744C115.411 35.5795 115.679 35.723 115.935 35.9048C116.193 36.0838 116.406 36.3139 116.574 36.5952C116.742 36.8764 116.825 37.2216 116.825 37.6307C116.825 38.1023 116.702 38.5284 116.455 38.9091C116.21 39.2898 115.852 39.5923 115.381 39.8168C114.912 40.0412 114.343 40.1534 113.672 40.1534C113.047 40.1534 112.506 40.0526 112.049 39.8509C111.594 39.6491 111.236 39.3679 110.975 39.0071C110.716 38.6463 110.57 38.2273 110.536 37.75H111.627C111.655 38.0795 111.766 38.3523 111.959 38.5682C112.155 38.7812 112.402 38.9403 112.7 39.0455C113.002 39.1477 113.325 39.1989 113.672 39.1989C114.075 39.1989 114.438 39.1335 114.759 39.0028C115.08 38.8693 115.334 38.6847 115.522 38.4489C115.709 38.2102 115.803 37.9318 115.803 37.6136C115.803 37.3239 115.722 37.0881 115.56 36.9062C115.398 36.7244 115.185 36.5767 114.921 36.4631C114.656 36.3494 114.371 36.25 114.064 36.1648L112.99 35.858C112.308 35.6619 111.769 35.3821 111.371 35.0185C110.973 34.6548 110.774 34.179 110.774 33.5909C110.774 33.1023 110.906 32.6761 111.171 32.3125C111.438 31.946 111.796 31.6619 112.245 31.4602C112.696 31.2557 113.2 31.1534 113.757 31.1534C114.32 31.1534 114.82 31.2543 115.257 31.456C115.695 31.6548 116.041 31.9276 116.297 32.2741C116.556 32.6207 116.692 33.0142 116.706 33.4545H115.683ZM118.686 32.2102V31.2727H125.231V32.2102H122.487V40H121.43V32.2102H118.686ZM126.801 40H125.693L128.897 31.2727H129.988L133.193 40H132.085L129.477 32.6534H129.409L126.801 40ZM127.21 36.5909H131.676V37.5284H127.21V36.5909ZM133.655 32.2102V31.2727H140.201V32.2102H137.456V40H136.4V32.2102H133.655ZM142.432 40V31.2727H147.699V32.2102H143.489V35.1591H147.426V36.0966H143.489V39.0625H147.767V40H142.432ZM154.179 40V31.2727H157.128C157.812 31.2727 158.372 31.3963 158.807 31.6435C159.244 31.8878 159.568 32.2188 159.778 32.6364C159.988 33.054 160.093 33.5199 160.093 34.0341C160.093 34.5483 159.988 35.0156 159.778 35.4361C159.571 35.8565 159.25 36.1918 158.815 36.4418C158.38 36.6889 157.824 36.8125 157.145 36.8125H155.031V35.875H157.111C157.579 35.875 157.956 35.794 158.24 35.6321C158.524 35.4702 158.73 35.2514 158.858 34.9759C158.988 34.6974 159.054 34.3835 159.054 34.0341C159.054 33.6847 158.988 33.3722 158.858 33.0966C158.73 32.821 158.522 32.6051 158.236 32.4489C157.949 32.2898 157.568 32.2102 157.093 32.2102H155.236V40H154.179ZM162.396 40V31.2727H165.345C166.027 31.2727 166.586 31.3892 167.024 31.6222C167.461 31.8523 167.785 32.169 167.995 32.5724C168.206 32.9759 168.311 33.4347 168.311 33.9489C168.311 34.4631 168.206 34.919 167.995 35.3168C167.785 35.7145 167.463 36.027 167.028 36.2543C166.593 36.4787 166.038 36.5909 165.362 36.5909H162.975V35.6364H165.328C165.794 35.6364 166.169 35.5682 166.453 35.4318C166.74 35.2955 166.947 35.1023 167.075 34.8523C167.206 34.5994 167.271 34.2983 167.271 33.9489C167.271 33.5994 167.206 33.294 167.075 33.0327C166.944 32.7713 166.735 32.5696 166.448 32.4276C166.162 32.2827 165.782 32.2102 165.311 32.2102H163.453V40H162.396ZM166.504 36.0795L168.652 40H167.424L165.311 36.0795H166.504ZM178.035 35.6364C178.035 36.5568 177.869 37.3523 177.537 38.0227C177.204 38.6932 176.748 39.2102 176.169 39.5739C175.589 39.9375 174.927 40.1193 174.183 40.1193C173.439 40.1193 172.777 39.9375 172.197 39.5739C171.618 39.2102 171.162 38.6932 170.829 38.0227C170.497 37.3523 170.331 36.5568 170.331 35.6364C170.331 34.7159 170.497 33.9205 170.829 33.25C171.162 32.5795 171.618 32.0625 172.197 31.6989C172.777 31.3352 173.439 31.1534 174.183 31.1534C174.927 31.1534 175.589 31.3352 176.169 31.6989C176.748 32.0625 177.204 32.5795 177.537 33.25C177.869 33.9205 178.035 34.7159 178.035 35.6364ZM177.013 35.6364C177.013 34.8807 176.886 34.2429 176.633 33.723C176.383 33.2031 176.044 32.8097 175.615 32.5426C175.189 32.2756 174.711 32.142 174.183 32.142C173.655 32.142 173.176 32.2756 172.747 32.5426C172.321 32.8097 171.981 33.2031 171.728 33.723C171.478 34.2429 171.353 34.8807 171.353 35.6364C171.353 36.392 171.478 37.0298 171.728 37.5497C171.981 38.0696 172.321 38.4631 172.747 38.7301C173.176 38.9972 173.655 39.1307 174.183 39.1307C174.711 39.1307 175.189 38.9972 175.615 38.7301C176.044 38.4631 176.383 38.0696 176.633 37.5497C176.886 37.0298 177.013 36.392 177.013 35.6364ZM180.412 40V31.2727H185.645V32.2102H181.469V35.1591H185.253V36.0966H181.469V40H180.412ZM188.055 40V31.2727H193.322V32.2102H189.112V35.1591H193.05V36.0966H189.112V39.0625H193.39V40H188.055ZM200.6 33.4545C200.549 33.0227 200.341 32.6875 199.978 32.4489C199.614 32.2102 199.168 32.0909 198.64 32.0909C198.253 32.0909 197.915 32.1534 197.625 32.2784C197.338 32.4034 197.114 32.5753 196.952 32.794C196.793 33.0128 196.713 33.2614 196.713 33.5398C196.713 33.7727 196.769 33.973 196.88 34.1406C196.993 34.3054 197.138 34.4432 197.314 34.554C197.49 34.6619 197.675 34.7514 197.868 34.8224C198.062 34.8906 198.239 34.946 198.401 34.9886L199.287 35.2273C199.515 35.2869 199.767 35.3693 200.046 35.4744C200.327 35.5795 200.596 35.723 200.851 35.9048C201.11 36.0838 201.323 36.3139 201.49 36.5952C201.658 36.8764 201.742 37.2216 201.742 37.6307C201.742 38.1023 201.618 38.5284 201.371 38.9091C201.127 39.2898 200.769 39.5923 200.297 39.8168C199.829 40.0412 199.259 40.1534 198.588 40.1534C197.963 40.1534 197.422 40.0526 196.965 39.8509C196.51 39.6491 196.152 39.3679 195.891 39.0071C195.633 38.6463 195.486 38.2273 195.452 37.75H196.543C196.571 38.0795 196.682 38.3523 196.875 38.5682C197.071 38.7812 197.319 38.9403 197.617 39.0455C197.918 39.1477 198.242 39.1989 198.588 39.1989C198.992 39.1989 199.354 39.1335 199.675 39.0028C199.996 38.8693 200.25 38.6847 200.438 38.4489C200.625 38.2102 200.719 37.9318 200.719 37.6136C200.719 37.3239 200.638 37.0881 200.476 36.9062C200.314 36.7244 200.101 36.5767 199.837 36.4631C199.573 36.3494 199.287 36.25 198.981 36.1648L197.907 35.858C197.225 35.6619 196.685 35.3821 196.287 35.0185C195.89 34.6548 195.691 34.179 195.691 33.5909C195.691 33.1023 195.823 32.6761 196.087 32.3125C196.354 31.946 196.712 31.6619 197.161 31.4602C197.613 31.2557 198.117 31.1534 198.674 31.1534C199.236 31.1534 199.736 31.2543 200.174 31.456C200.611 31.6548 200.958 31.9276 201.213 32.2741C201.472 32.6207 201.608 33.0142 201.623 33.4545H200.6ZM208.852 33.4545C208.801 33.0227 208.594 32.6875 208.23 32.4489C207.866 32.2102 207.42 32.0909 206.892 32.0909C206.506 32.0909 206.168 32.1534 205.878 32.2784C205.591 32.4034 205.366 32.5753 205.204 32.794C205.045 33.0128 204.966 33.2614 204.966 33.5398C204.966 33.7727 205.021 33.973 205.132 34.1406C205.246 34.3054 205.391 34.4432 205.567 34.554C205.743 34.6619 205.927 34.7514 206.121 34.8224C206.314 34.8906 206.491 34.946 206.653 34.9886L207.54 35.2273C207.767 35.2869 208.02 35.3693 208.298 35.4744C208.579 35.5795 208.848 35.723 209.104 35.9048C209.362 36.0838 209.575 36.3139 209.743 36.5952C209.91 36.8764 209.994 37.2216 209.994 37.6307C209.994 38.1023 209.871 38.5284 209.624 38.9091C209.379 39.2898 209.021 39.5923 208.55 39.8168C208.081 40.0412 207.511 40.1534 206.841 40.1534C206.216 40.1534 205.675 40.0526 205.217 39.8509C204.763 39.6491 204.405 39.3679 204.143 39.0071C203.885 38.6463 203.739 38.2273 203.704 37.75H204.795C204.824 38.0795 204.935 38.3523 205.128 38.5682C205.324 38.7812 205.571 38.9403 205.869 39.0455C206.17 39.1477 206.494 39.1989 206.841 39.1989C207.244 39.1989 207.606 39.1335 207.927 39.0028C208.249 38.8693 208.503 38.6847 208.69 38.4489C208.878 38.2102 208.972 37.9318 208.972 37.6136C208.972 37.3239 208.891 37.0881 208.729 36.9062C208.567 36.7244 208.354 36.5767 208.089 36.4631C207.825 36.3494 207.54 36.25 207.233 36.1648L206.159 35.858C205.477 35.6619 204.937 35.3821 204.54 35.0185C204.142 34.6548 203.943 34.179 203.943 33.5909C203.943 33.1023 204.075 32.6761 204.339 32.3125C204.606 31.946 204.964 31.6619 205.413 31.4602C205.865 31.2557 206.369 31.1534 206.926 31.1534C207.489 31.1534 207.989 31.2543 208.426 31.456C208.864 31.6548 209.21 31.9276 209.466 32.2741C209.724 32.6207 209.861 33.0142 209.875 33.4545H208.852ZM213.389 31.2727V40H212.332V31.2727H213.389ZM223.471 35.6364C223.471 36.5568 223.305 37.3523 222.973 38.0227C222.64 38.6932 222.184 39.2102 221.605 39.5739C221.025 39.9375 220.363 40.1193 219.619 40.1193C218.875 40.1193 218.213 39.9375 217.633 39.5739C217.054 39.2102 216.598 38.6932 216.265 38.0227C215.933 37.3523 215.767 36.5568 215.767 35.6364C215.767 34.7159 215.933 33.9205 216.265 33.25C216.598 32.5795 217.054 32.0625 217.633 31.6989C218.213 31.3352 218.875 31.1534 219.619 31.1534C220.363 31.1534 221.025 31.3352 221.605 31.6989C222.184 32.0625 222.64 32.5795 222.973 33.25C223.305 33.9205 223.471 34.7159 223.471 35.6364ZM222.449 35.6364C222.449 34.8807 222.322 34.2429 222.069 33.723C221.819 33.2031 221.48 32.8097 221.051 32.5426C220.625 32.2756 220.147 32.142 219.619 32.142C219.091 32.142 218.612 32.2756 218.183 32.5426C217.757 32.8097 217.417 33.2031 217.164 33.723C216.914 34.2429 216.789 34.8807 216.789 35.6364C216.789 36.392 216.914 37.0298 217.164 37.5497C217.417 38.0696 217.757 38.4631 218.183 38.7301C218.612 38.9972 219.091 39.1307 219.619 39.1307C220.147 39.1307 220.625 38.9972 221.051 38.7301C221.48 38.4631 221.819 38.0696 222.069 37.5497C222.322 37.0298 222.449 36.392 222.449 35.6364ZM232.769 31.2727V40H231.746L226.99 33.1477H226.905V40H225.848V31.2727H226.871L231.644 38.142H231.729V31.2727H232.769ZM235.841 40H234.733L237.938 31.2727H239.029L242.233 40H241.125L238.517 32.6534H238.449L235.841 40ZM236.25 36.5909H240.716V37.5284H236.25V36.5909ZM244.193 40V31.2727H245.25V39.0625H249.306V40H244.193Z"
        fill="#333333" />
      <path
        d="M66.8667 6.81818H69.4946L75.6736 21.9105H75.8866L82.0656 6.81818H84.6934V25H82.6338V11.1861H82.4562L76.7744 25H74.7858L69.104 11.1861H68.9264V25H66.8667V6.81818ZM91.1037 25H88.7955L95.4716 6.81818H97.7443L104.42 25H102.112L96.679 9.6946H96.5369L91.1037 25ZM91.956 17.8977H101.26V19.8509H91.956V17.8977ZM108.502 25V6.81818H114.646C116.066 6.81818 117.232 7.06084 118.144 7.54616C119.055 8.02557 119.73 8.68549 120.168 9.52592C120.606 10.3664 120.825 11.3222 120.825 12.3935C120.825 13.4647 120.606 14.4147 120.168 15.2433C119.73 16.0719 119.058 16.7229 118.153 17.1964C117.247 17.6639 116.09 17.8977 114.681 17.8977H109.71V15.9091H114.61C115.581 15.9091 116.362 15.767 116.954 15.483C117.552 15.1989 117.984 14.7964 118.25 14.2756C118.523 13.7488 118.659 13.1214 118.659 12.3935C118.659 11.6655 118.523 11.0292 118.25 10.4847C117.978 9.94022 117.543 9.52 116.945 9.22408C116.348 8.92223 115.557 8.77131 114.575 8.77131H110.704V25H108.502ZM117.061 16.8324L121.535 25H118.978L114.575 16.8324H117.061ZM138.173 12.5C137.977 11.9022 137.72 11.3666 137.4 10.8931C137.087 10.4137 136.711 10.0053 136.273 9.66797C135.841 9.33061 135.35 9.07315 134.799 8.8956C134.249 8.71804 133.645 8.62926 132.988 8.62926C131.911 8.62926 130.931 8.90743 130.049 9.46378C129.168 10.0201 128.466 10.8398 127.945 11.9229C127.425 13.006 127.164 14.3348 127.164 15.9091C127.164 17.4834 127.428 18.8121 127.954 19.8952C128.481 20.9783 129.194 21.7981 130.094 22.3544C130.993 22.9107 132.006 23.1889 133.13 23.1889C134.172 23.1889 135.089 22.967 135.882 22.5231C136.681 22.0733 137.303 21.44 137.747 20.6232C138.196 19.8005 138.421 18.8329 138.421 17.7202L139.096 17.8622H133.627V15.9091H140.552V17.8622C140.552 19.3596 140.232 20.6617 139.593 21.7685C138.96 22.8752 138.084 23.7334 136.965 24.343C135.853 24.9467 134.574 25.2486 133.13 25.2486C131.52 25.2486 130.106 24.8698 128.886 24.1122C127.673 23.3546 126.726 22.2775 126.046 20.8807C125.371 19.4839 125.033 17.8267 125.033 15.9091C125.033 14.4709 125.226 13.1777 125.611 12.0295C126.001 10.8754 126.552 9.89287 127.262 9.08203C127.972 8.27119 128.812 7.64974 129.783 7.21768C130.754 6.78563 131.822 6.5696 132.988 6.5696C133.947 6.5696 134.841 6.71461 135.669 7.00462C136.504 7.28871 137.246 7.69413 137.897 8.22088C138.554 8.74171 139.102 9.36612 139.54 10.0941C139.978 10.8162 140.28 11.6181 140.445 12.5H138.173ZM160.914 15.9091C160.914 17.8267 160.567 19.4839 159.875 20.8807C159.183 22.2775 158.233 23.3546 157.025 24.1122C155.818 24.8698 154.439 25.2486 152.888 25.2486C151.337 25.2486 149.958 24.8698 148.751 24.1122C147.544 23.3546 146.594 22.2775 145.901 20.8807C145.209 19.4839 144.863 17.8267 144.863 15.9091C144.863 13.9915 145.209 12.3343 145.901 10.9375C146.594 9.54072 147.544 8.46354 148.751 7.70597C149.958 6.94839 151.337 6.5696 152.888 6.5696C154.439 6.5696 155.818 6.94839 157.025 7.70597C158.233 8.46354 159.183 9.54072 159.875 10.9375C160.567 12.3343 160.914 13.9915 160.914 15.9091ZM158.783 15.9091C158.783 14.3348 158.52 13.006 157.993 11.9229C157.472 10.8398 156.765 10.0201 155.871 9.46378C154.983 8.90743 153.989 8.62926 152.888 8.62926C151.787 8.62926 150.79 8.90743 149.896 9.46378C149.009 10.0201 148.301 10.8398 147.775 11.9229C147.254 13.006 146.993 14.3348 146.993 15.9091C146.993 17.4834 147.254 18.8121 147.775 19.8952C148.301 20.9783 149.009 21.7981 149.896 22.3544C150.79 22.9107 151.787 23.1889 152.888 23.1889C153.989 23.1889 154.983 22.9107 155.871 22.3544C156.765 21.7981 157.472 20.9783 157.993 19.8952C158.52 18.8121 158.783 17.4834 158.783 15.9091ZM164.115 8.77131V6.81818H177.751V8.77131H172.034V25H169.832V8.77131H164.115ZM190.68 6.81818H193.308L199.487 21.9105H199.7L205.879 6.81818H208.507V25H206.447V11.1861H206.27L200.588 25H198.599L192.917 11.1861H192.74V25H190.68V6.81818ZM214.917 25H212.609L219.285 6.81818H221.558L228.234 25H225.926L220.492 9.6946H220.35L214.917 25ZM215.769 17.8977H225.073V19.8509H215.769V17.8977ZM232.316 25V6.81818H238.459C239.88 6.81818 241.046 7.06084 241.957 7.54616C242.869 8.02557 243.543 8.68549 243.981 9.52592C244.419 10.3664 244.638 11.3222 244.638 12.3935C244.638 13.4647 244.419 14.4147 243.981 15.2433C243.543 16.0719 242.872 16.7229 241.966 17.1964C241.061 17.6639 239.904 17.8977 238.495 17.8977H233.523V15.9091H238.424C239.395 15.9091 240.176 15.767 240.768 15.483C241.365 15.1989 241.797 14.7964 242.064 14.2756C242.336 13.7488 242.472 13.1214 242.472 12.3935C242.472 11.6655 242.336 11.0292 242.064 10.4847C241.792 9.94022 241.357 9.52 240.759 9.22408C240.161 8.92223 239.371 8.77131 238.388 8.77131H234.518V25H232.316ZM240.874 16.8324L245.349 25H242.792L238.388 16.8324H240.874ZM248.563 8.77131V6.81818H262.199V8.77131H256.482V25H254.28V8.77131H248.563ZM269.049 6.81818V25H266.847V6.81818H269.049ZM289.131 6.81818V25H287L277.093 10.7244H276.915V25H274.713V6.81818H276.844L286.787 21.1293H286.965V6.81818H289.131Z"
        fill="#333333" />
    </symbol>

    <symbol id="full-star" viewBox="0 0 24 24">
      <path fill-rule="evenodd" clip-rule="evenodd"
        d="M10.7881 3.21068C11.2365 2.13274 12.7635 2.13273 13.2119 3.21068L15.2939 8.2164L20.6979 8.64964C21.8617 8.74293 22.3336 10.1952 21.4469 10.9547L17.3296 14.4817L18.5875 19.7551C18.8584 20.8908 17.623 21.7883 16.6267 21.1798L12 18.3538L7.37335 21.1798C6.37703 21.7883 5.14164 20.8908 5.41252 19.7551L6.67044 14.4817L2.55309 10.9547C1.66645 10.1952 2.13833 8.74293 3.30206 8.64964L8.70615 8.2164L10.7881 3.21068Z"
        fill="#333333" />
    </symbol>

    <symbol id="empty-star" viewBox="0 0 24 24" fill="none">
      <path
        d="M11.4806 3.4987C11.6728 3.03673 12.3272 3.03673 12.5193 3.4987L14.6453 8.61016C14.7263 8.80492 14.9095 8.93799 15.1197 8.95485L20.638 9.39724C21.1367 9.43722 21.339 10.0596 20.959 10.3851L16.7546 13.9866C16.5945 14.1238 16.5245 14.3391 16.5734 14.5443L17.8579 19.9292C17.974 20.4159 17.4446 20.8005 17.0176 20.5397L12.2932 17.6541C12.1132 17.5441 11.8868 17.5441 11.7068 17.6541L6.98238 20.5397C6.55539 20.8005 6.02594 20.4159 6.14203 19.9292L7.42652 14.5443C7.47546 14.3391 7.4055 14.1238 7.24531 13.9866L3.04099 10.3851C2.661 10.0596 2.86323 9.43722 3.36197 9.39724L8.88022 8.95485C9.09048 8.93799 9.27363 8.80492 9.35464 8.61016L11.4806 3.4987Z"
        stroke="#333333" stroke-width="1.5" stroke-linecap="round" stroke-linejoin="round" />
    </symbol>
  </defs>
</svg>