<svg aria-hidden="true" style="position: absolute; width: 0; height: 0; overflow: hidden;" version="1.1"
  xmlns="http://www.w3.org/2000/svg" xmlns:xlink="http://www.w3.org/1999/xlink">
  <defs>
    <symbol id="linkedin" viewBox="0 0 24 28">
      <path
        d="M3.703 22.094h3.609v-10.844h-3.609v10.844zM7.547 7.906c-0.016-1.062-0.781-1.875-2.016-1.875s-2.047 0.812-2.047 1.875c0 1.031 0.781 1.875 2 1.875h0.016c1.266 0 2.047-0.844 2.047-1.875zM16.688 22.094h3.609v-6.219c0-3.328-1.781-4.875-4.156-4.875-1.937 0-2.797 1.078-3.266 1.828h0.031v-1.578h-3.609s0.047 1.016 0 10.844v0h3.609v-6.062c0-0.313 0.016-0.641 0.109-0.875 0.266-0.641 0.859-1.313 1.859-1.313 1.297 0 1.813 0.984 1.813 2.453v5.797zM24 6.5v15c0 2.484-2.016 4.5-4.5 4.5h-15c-2.484 0-4.5-2.016-4.5-4.5v-15c0-2.484 2.016-4.5 4.5-4.5h15c2.484 0 4.5 2.016 4.5 4.5z">
      </path>
    </symbol>
    <symbol id="instagram" viewBox="0 0 24 28">
      <path
        d="M16 14c0-2.203-1.797-4-4-4s-4 1.797-4 4 1.797 4 4 4 4-1.797 4-4zM18.156 14c0 3.406-2.75 6.156-6.156 6.156s-6.156-2.75-6.156-6.156 2.75-6.156 6.156-6.156 6.156 2.75 6.156 6.156zM19.844 7.594c0 0.797-0.641 1.437-1.437 1.437s-1.437-0.641-1.437-1.437 0.641-1.437 1.437-1.437 1.437 0.641 1.437 1.437zM12 4.156c-1.75 0-5.5-0.141-7.078 0.484-0.547 0.219-0.953 0.484-1.375 0.906s-0.688 0.828-0.906 1.375c-0.625 1.578-0.484 5.328-0.484 7.078s-0.141 5.5 0.484 7.078c0.219 0.547 0.484 0.953 0.906 1.375s0.828 0.688 1.375 0.906c1.578 0.625 5.328 0.484 7.078 0.484s5.5 0.141 7.078-0.484c0.547-0.219 0.953-0.484 1.375-0.906s0.688-0.828 0.906-1.375c0.625-1.578 0.484-5.328 0.484-7.078s0.141-5.5-0.484-7.078c-0.219-0.547-0.484-0.953-0.906-1.375s-0.828-0.688-1.375-0.906c-1.578-0.625-5.328-0.484-7.078-0.484zM24 14c0 1.656 0.016 3.297-0.078 4.953-0.094 1.922-0.531 3.625-1.937 5.031s-3.109 1.844-5.031 1.937c-1.656 0.094-3.297 0.078-4.953 0.078s-3.297 0.016-4.953-0.078c-1.922-0.094-3.625-0.531-5.031-1.937s-1.844-3.109-1.937-5.031c-0.094-1.656-0.078-3.297-0.078-4.953s-0.016-3.297 0.078-4.953c0.094-1.922 0.531-3.625 1.937-5.031s3.109-1.844 5.031-1.937c1.656-0.094 3.297-0.078 4.953-0.078s3.297-0.016 4.953 0.078c1.922 0.094 3.625 0.531 5.031 1.937s1.844 3.109 1.937 5.031c0.094 1.656 0.078 3.297 0.078 4.953z">
      </path>
    </symbol>

    <symbol id="airplay" viewBox="0 0 32 32">
      <path
        d="M4.549 1.76c-1.571 0-2.112 0.163-2.708 0.488-0.579 0.311-1.043 0.773-1.346 1.335l-0.009 0.017c-0.324 0.597-0.487 1.137-0.487 2.761v12.183c0 1.571 0.163 2.113 0.487 2.708 0.325 0.596 0.76 1.029 1.355 1.355 0.541 0.325 1.084 0.487 2.708 0.487h3.627l1.517-1.787h-5.685c-0.433 0.055-0.92-0.001-1.355-0.219-0.271-0.107-0.488-0.377-0.651-0.648-0.163-0.433-0.271-0.867-0.216-1.355v-13.211c-0.053-0.433 0-0.92 0.216-1.353 0.108-0.271 0.38-0.487 0.651-0.649 0.433-0.163 0.867-0.272 1.355-0.219h23.823c0.433-0.053 0.92 0.003 1.355 0.219 0.271 0.109 0.485 0.379 0.648 0.649 0.163 0.432 0.271 0.867 0.216 1.353v13.267c0.053 0.432 0 0.92-0.216 1.353-0.108 0.271-0.377 0.487-0.648 0.648-0.433 0.163-0.867 0.271-1.355 0.217h-5.685l1.516 1.788 3.737-0.053c1.624 0 2.164-0.163 2.76-0.488 0.58-0.312 1.043-0.775 1.346-1.337l0.009-0.017c0.324-0.541 0.487-1.084 0.487-2.707v-12.185c0-1.624-0.163-2.164-0.487-2.76-0.312-0.579-0.775-1.042-1.337-1.345l-0.017-0.009c-0.596-0.325-1.136-0.488-2.76-0.488zM15.817 18.024c-0.2 0.009-0.376 0.103-0.492 0.248l-0.001 0.001-9.475 10.883c-0.102 0.11-0.164 0.258-0.164 0.42 0 0.005 0 0.010 0 0.015v-0.001c-0 0.007-0 0.015-0 0.023 0 0.346 0.281 0.627 0.627 0.627 0.009 0 0.017-0 0.026-0l-0.001 0h19.057c0.163 0 0.327-0.053 0.435-0.161 0.271-0.217 0.272-0.652 0.055-0.923l-9.531-10.936c-0.139-0.122-0.321-0.196-0.522-0.196-0.005 0-0.009 0-0.014 0h0.001z">
      </path>
    </symbol>
  </defs>
</svg>